<mxfile host="app.diagrams.net" modified="2024-05-03T23:23:14.149Z" agent="Mozilla/5.0 (Windows NT 10.0; Win64; x64; rv:109.0) Gecko/20100101 Firefox/115.0" etag="QM3Ok7rbqLv8itxSJ2xl" version="24.3.1" type="device">
  <diagram name="Page-0" id="Page-0">
    <mxGraphModel dx="6112" dy="756" grid="1" gridSize="10" guides="1" tooltips="1" connect="1" arrows="1" fold="1" page="1" pageScale="1" pageWidth="2339" pageHeight="3300" math="0" shadow="0">
      <root>
        <mxCell id="0" />
        <mxCell id="1" parent="0" />
        <mxCell id="Y4brpUqyJMxe7sHr3JE1-9" style="edgeStyle=orthogonalEdgeStyle;rounded=0;orthogonalLoop=1;jettySize=auto;html=1;endArrow=oval;endFill=0;" parent="1" edge="1">
          <mxGeometry relative="1" as="geometry">
            <mxPoint x="-3334" y="2368" as="targetPoint" />
            <mxPoint x="-3384" y="2368.0232558139537" as="sourcePoint" />
          </mxGeometry>
        </mxCell>
        <mxCell id="Y4brpUqyJMxe7sHr3JE1-7" value="&lt;font style=&quot;font-size: 17px;&quot;&gt;Abbonamento&lt;/font&gt;" style="rounded=0;whiteSpace=wrap;html=1;" parent="1" vertex="1">
          <mxGeometry x="-3524" y="2344" width="140" height="70" as="geometry" />
        </mxCell>
        <mxCell id="Y4brpUqyJMxe7sHr3JE1-10" value="&lt;font style=&quot;font-size: 7px;&quot;&gt;Utente&lt;/font&gt;" style="text;html=1;align=center;verticalAlign=middle;resizable=0;points=[];autosize=1;strokeColor=none;fillColor=none;" parent="1" vertex="1">
          <mxGeometry x="-3333" y="2351" width="40" height="30" as="geometry" />
        </mxCell>
        <mxCell id="Y4brpUqyJMxe7sHr3JE1-11" style="edgeStyle=orthogonalEdgeStyle;rounded=0;orthogonalLoop=1;jettySize=auto;html=1;endArrow=oval;endFill=1;" parent="1" edge="1">
          <mxGeometry relative="1" as="geometry">
            <mxPoint x="-3334" y="2398" as="targetPoint" />
            <mxPoint x="-3384" y="2398.0232558139537" as="sourcePoint" />
          </mxGeometry>
        </mxCell>
        <mxCell id="Y4brpUqyJMxe7sHr3JE1-12" value="&lt;font style=&quot;font-size: 7px;&quot;&gt;ID&lt;/font&gt;" style="text;html=1;align=center;verticalAlign=middle;resizable=0;points=[];autosize=1;strokeColor=none;fillColor=none;" parent="1" vertex="1">
          <mxGeometry x="-3334" y="2380" width="30" height="30" as="geometry" />
        </mxCell>
        <mxCell id="Y4brpUqyJMxe7sHr3JE1-15" style="edgeStyle=orthogonalEdgeStyle;rounded=0;orthogonalLoop=1;jettySize=auto;html=1;entryX=0.5;entryY=0;entryDx=0;entryDy=0;endArrow=none;endFill=0;" parent="1" source="Y4brpUqyJMxe7sHr3JE1-14" target="Y4brpUqyJMxe7sHr3JE1-7" edge="1">
          <mxGeometry relative="1" as="geometry" />
        </mxCell>
        <mxCell id="Y4brpUqyJMxe7sHr3JE1-14" value="Sottoscrive" style="rhombus;whiteSpace=wrap;html=1;" parent="1" vertex="1">
          <mxGeometry x="-3504" y="2221" width="100" height="80" as="geometry" />
        </mxCell>
        <mxCell id="Y4brpUqyJMxe7sHr3JE1-16" value="(1,1)" style="text;html=1;align=center;verticalAlign=middle;resizable=0;points=[];autosize=1;strokeColor=none;fillColor=none;" parent="1" vertex="1">
          <mxGeometry x="-3459" y="2308" width="50" height="30" as="geometry" />
        </mxCell>
        <mxCell id="7_E60O6SRjFaIh0Kmj5M-2" style="edgeStyle=orthogonalEdgeStyle;rounded=0;orthogonalLoop=1;jettySize=auto;html=1;entryX=0.5;entryY=1;entryDx=0;entryDy=0;" parent="1" source="Y4brpUqyJMxe7sHr3JE1-18" target="Y4brpUqyJMxe7sHr3JE1-28" edge="1">
          <mxGeometry relative="1" as="geometry" />
        </mxCell>
        <mxCell id="Y4brpUqyJMxe7sHr3JE1-18" value="&lt;font style=&quot;font-size: 17px;&quot;&gt;Abbonato&lt;/font&gt;" style="rounded=0;whiteSpace=wrap;html=1;" parent="1" vertex="1">
          <mxGeometry x="-3524" y="2116" width="140" height="70" as="geometry" />
        </mxCell>
        <mxCell id="Y4brpUqyJMxe7sHr3JE1-19" value="(1,1)" style="text;html=1;align=center;verticalAlign=middle;resizable=0;points=[];autosize=1;strokeColor=none;fillColor=none;" parent="1" vertex="1">
          <mxGeometry x="-3459" y="2186" width="50" height="30" as="geometry" />
        </mxCell>
        <mxCell id="7_E60O6SRjFaIh0Kmj5M-3" style="edgeStyle=orthogonalEdgeStyle;rounded=0;orthogonalLoop=1;jettySize=auto;html=1;entryX=0.5;entryY=1;entryDx=0;entryDy=0;" parent="1" source="Y4brpUqyJMxe7sHr3JE1-20" target="Y4brpUqyJMxe7sHr3JE1-28" edge="1">
          <mxGeometry relative="1" as="geometry" />
        </mxCell>
        <mxCell id="Y4brpUqyJMxe7sHr3JE1-20" value="&lt;font style=&quot;font-size: 17px;&quot;&gt;Amministratore&lt;/font&gt;" style="rounded=0;whiteSpace=wrap;html=1;" parent="1" vertex="1">
          <mxGeometry x="-3274" y="2115.62" width="140" height="70" as="geometry" />
        </mxCell>
        <mxCell id="Y4brpUqyJMxe7sHr3JE1-27" value="(nt, e)" style="text;html=1;align=center;verticalAlign=middle;resizable=0;points=[];autosize=1;strokeColor=none;fillColor=none;" parent="1" vertex="1">
          <mxGeometry x="-3331" y="1938" width="50" height="30" as="geometry" />
        </mxCell>
        <mxCell id="Y4brpUqyJMxe7sHr3JE1-58" style="edgeStyle=orthogonalEdgeStyle;rounded=0;orthogonalLoop=1;jettySize=auto;html=1;endArrow=oval;endFill=0;" parent="1" edge="1">
          <mxGeometry relative="1" as="geometry">
            <mxPoint x="-3394" y="1810" as="targetPoint" />
            <mxPoint x="-3394" y="1860" as="sourcePoint" />
          </mxGeometry>
        </mxCell>
        <mxCell id="Y4brpUqyJMxe7sHr3JE1-28" value="&lt;font style=&quot;font-size: 17px;&quot;&gt;Utente&lt;/font&gt;" style="rounded=0;whiteSpace=wrap;html=1;" parent="1" vertex="1">
          <mxGeometry x="-3404" y="1863" width="140" height="70" as="geometry" />
        </mxCell>
        <mxCell id="Y4brpUqyJMxe7sHr3JE1-31" style="edgeStyle=orthogonalEdgeStyle;rounded=0;orthogonalLoop=1;jettySize=auto;html=1;entryX=0.097;entryY=0.04;entryDx=0;entryDy=0;entryPerimeter=0;endArrow=none;endFill=0;" parent="1" source="Y4brpUqyJMxe7sHr3JE1-14" target="Y4brpUqyJMxe7sHr3JE1-19" edge="1">
          <mxGeometry relative="1" as="geometry" />
        </mxCell>
        <mxCell id="Y4brpUqyJMxe7sHr3JE1-171" style="edgeStyle=orthogonalEdgeStyle;rounded=0;orthogonalLoop=1;jettySize=auto;html=1;entryX=0;entryY=0.5;entryDx=0;entryDy=0;endArrow=none;endFill=0;" parent="1" source="Y4brpUqyJMxe7sHr3JE1-33" target="Y4brpUqyJMxe7sHr3JE1-18" edge="1">
          <mxGeometry relative="1" as="geometry">
            <Array as="points">
              <mxPoint x="-3584" y="2275" />
              <mxPoint x="-3584" y="2151" />
            </Array>
          </mxGeometry>
        </mxCell>
        <mxCell id="Y4brpUqyJMxe7sHr3JE1-33" value="Accede" style="rhombus;whiteSpace=wrap;html=1;" parent="1" vertex="1">
          <mxGeometry x="-3844" y="2235" width="80" height="80" as="geometry" />
        </mxCell>
        <mxCell id="Y4brpUqyJMxe7sHr3JE1-162" style="edgeStyle=orthogonalEdgeStyle;rounded=0;orthogonalLoop=1;jettySize=auto;html=1;entryX=1;entryY=0.5;entryDx=0;entryDy=0;endArrow=none;endFill=0;" parent="1" source="Y4brpUqyJMxe7sHr3JE1-34" target="Y4brpUqyJMxe7sHr3JE1-161" edge="1">
          <mxGeometry relative="1" as="geometry" />
        </mxCell>
        <mxCell id="Y4brpUqyJMxe7sHr3JE1-172" style="edgeStyle=orthogonalEdgeStyle;rounded=0;orthogonalLoop=1;jettySize=auto;html=1;entryX=0;entryY=0.75;entryDx=0;entryDy=0;endArrow=none;endFill=0;" parent="1" source="Y4brpUqyJMxe7sHr3JE1-34" target="Y4brpUqyJMxe7sHr3JE1-18" edge="1">
          <mxGeometry relative="1" as="geometry">
            <Array as="points">
              <mxPoint x="-3564" y="2390" />
              <mxPoint x="-3564" y="2169" />
            </Array>
          </mxGeometry>
        </mxCell>
        <mxCell id="Y4brpUqyJMxe7sHr3JE1-34" value="Vede" style="rhombus;whiteSpace=wrap;html=1;" parent="1" vertex="1">
          <mxGeometry x="-3844" y="2350" width="80" height="80" as="geometry" />
        </mxCell>
        <mxCell id="Y4brpUqyJMxe7sHr3JE1-40" style="edgeStyle=orthogonalEdgeStyle;rounded=0;orthogonalLoop=1;jettySize=auto;html=1;entryX=0.5;entryY=0;entryDx=0;entryDy=0;endArrow=none;endFill=0;" parent="1" source="Y4brpUqyJMxe7sHr3JE1-39" target="Y4brpUqyJMxe7sHr3JE1-33" edge="1">
          <mxGeometry relative="1" as="geometry" />
        </mxCell>
        <mxCell id="Y4brpUqyJMxe7sHr3JE1-105" style="edgeStyle=orthogonalEdgeStyle;rounded=0;orthogonalLoop=1;jettySize=auto;html=1;entryX=0.5;entryY=1;entryDx=0;entryDy=0;endArrow=none;endFill=0;" parent="1" source="Y4brpUqyJMxe7sHr3JE1-39" target="Y4brpUqyJMxe7sHr3JE1-103" edge="1">
          <mxGeometry relative="1" as="geometry">
            <mxPoint x="-3804" y="1720" as="targetPoint" />
          </mxGeometry>
        </mxCell>
        <mxCell id="Y4brpUqyJMxe7sHr3JE1-107" style="edgeStyle=orthogonalEdgeStyle;rounded=0;orthogonalLoop=1;jettySize=auto;html=1;endArrow=oval;endFill=0;" parent="1" source="Y4brpUqyJMxe7sHr3JE1-39" edge="1">
          <mxGeometry relative="1" as="geometry">
            <mxPoint x="-3684" y="2155" as="targetPoint" />
          </mxGeometry>
        </mxCell>
        <mxCell id="Y4brpUqyJMxe7sHr3JE1-39" value="&lt;font style=&quot;font-size: 17px;&quot;&gt;Album&lt;/font&gt;" style="rounded=0;whiteSpace=wrap;html=1;" parent="1" vertex="1">
          <mxGeometry x="-3875" y="2120" width="140" height="70" as="geometry" />
        </mxCell>
        <mxCell id="Y4brpUqyJMxe7sHr3JE1-41" value="(0,n)" style="text;html=1;align=center;verticalAlign=middle;resizable=0;points=[];autosize=1;strokeColor=none;fillColor=none;" parent="1" vertex="1">
          <mxGeometry x="-3812" y="2186" width="50" height="30" as="geometry" />
        </mxCell>
        <mxCell id="Y4brpUqyJMxe7sHr3JE1-46" style="edgeStyle=orthogonalEdgeStyle;rounded=0;orthogonalLoop=1;jettySize=auto;html=1;endArrow=none;endFill=0;" parent="1" source="Y4brpUqyJMxe7sHr3JE1-42" target="Y4brpUqyJMxe7sHr3JE1-45" edge="1">
          <mxGeometry relative="1" as="geometry" />
        </mxCell>
        <mxCell id="Y4brpUqyJMxe7sHr3JE1-50" style="edgeStyle=orthogonalEdgeStyle;rounded=0;orthogonalLoop=1;jettySize=auto;html=1;endArrow=oval;endFill=0;" parent="1" edge="1">
          <mxGeometry relative="1" as="geometry">
            <mxPoint x="-4218" y="2070" as="targetPoint" />
            <mxPoint x="-4218" y="2120" as="sourcePoint" />
          </mxGeometry>
        </mxCell>
        <mxCell id="Y4brpUqyJMxe7sHr3JE1-113" style="edgeStyle=orthogonalEdgeStyle;rounded=0;orthogonalLoop=1;jettySize=auto;html=1;endArrow=none;endFill=0;entryX=0;entryY=0.5;entryDx=0;entryDy=0;" parent="1" source="Y4brpUqyJMxe7sHr3JE1-42" target="Y4brpUqyJMxe7sHr3JE1-110" edge="1">
          <mxGeometry relative="1" as="geometry">
            <Array as="points">
              <mxPoint x="-4174" y="1898" />
            </Array>
            <mxPoint x="-3670" y="1910" as="targetPoint" />
          </mxGeometry>
        </mxCell>
        <mxCell id="Y4brpUqyJMxe7sHr3JE1-155" style="edgeStyle=orthogonalEdgeStyle;rounded=0;orthogonalLoop=1;jettySize=auto;html=1;exitX=0.25;exitY=0;exitDx=0;exitDy=0;entryX=0;entryY=0;entryDx=0;entryDy=0;endArrow=none;endFill=0;" parent="1" source="Y4brpUqyJMxe7sHr3JE1-42" target="Y4brpUqyJMxe7sHr3JE1-151" edge="1">
          <mxGeometry relative="1" as="geometry">
            <Array as="points">
              <mxPoint x="-4203" y="1730" />
              <mxPoint x="-3051" y="1730" />
            </Array>
          </mxGeometry>
        </mxCell>
        <mxCell id="Y4brpUqyJMxe7sHr3JE1-42" value="&lt;font style=&quot;font-size: 17px;&quot;&gt;Brano&lt;/font&gt;" style="rounded=0;whiteSpace=wrap;html=1;" parent="1" vertex="1">
          <mxGeometry x="-4238" y="2120" width="140" height="70" as="geometry" />
        </mxCell>
        <mxCell id="Y4brpUqyJMxe7sHr3JE1-106" style="edgeStyle=orthogonalEdgeStyle;rounded=0;orthogonalLoop=1;jettySize=auto;html=1;entryX=0;entryY=0.5;entryDx=0;entryDy=0;endArrow=none;endFill=0;" parent="1" source="Y4brpUqyJMxe7sHr3JE1-45" target="Y4brpUqyJMxe7sHr3JE1-39" edge="1">
          <mxGeometry relative="1" as="geometry" />
        </mxCell>
        <mxCell id="Y4brpUqyJMxe7sHr3JE1-45" value="Compone" style="rhombus;whiteSpace=wrap;html=1;" parent="1" vertex="1">
          <mxGeometry x="-4024" y="2115.62" width="78.75" height="78.75" as="geometry" />
        </mxCell>
        <mxCell id="Y4brpUqyJMxe7sHr3JE1-48" value="(0,n)" style="text;html=1;align=center;verticalAlign=middle;resizable=0;points=[];autosize=1;strokeColor=none;fillColor=none;" parent="1" vertex="1">
          <mxGeometry x="-3918" y="2150" width="50" height="30" as="geometry" />
        </mxCell>
        <mxCell id="Y4brpUqyJMxe7sHr3JE1-49" value="(1,1)" style="text;html=1;align=center;verticalAlign=middle;resizable=0;points=[];autosize=1;strokeColor=none;fillColor=none;" parent="1" vertex="1">
          <mxGeometry x="-4105" y="2150" width="50" height="30" as="geometry" />
        </mxCell>
        <mxCell id="Y4brpUqyJMxe7sHr3JE1-51" value="&lt;font style=&quot;font-size: 7px;&quot;&gt;Genere&lt;/font&gt;" style="text;html=1;align=center;verticalAlign=middle;resizable=0;points=[];autosize=1;strokeColor=none;fillColor=none;" parent="1" vertex="1">
          <mxGeometry x="-4244" y="2041" width="50" height="30" as="geometry" />
        </mxCell>
        <mxCell id="Y4brpUqyJMxe7sHr3JE1-52" style="edgeStyle=orthogonalEdgeStyle;rounded=0;orthogonalLoop=1;jettySize=auto;html=1;endArrow=oval;endFill=0;" parent="1" edge="1">
          <mxGeometry relative="1" as="geometry">
            <mxPoint x="-4108" y="2070" as="targetPoint" />
            <mxPoint x="-4108" y="2120" as="sourcePoint" />
          </mxGeometry>
        </mxCell>
        <mxCell id="Y4brpUqyJMxe7sHr3JE1-53" style="edgeStyle=orthogonalEdgeStyle;rounded=0;orthogonalLoop=1;jettySize=auto;html=1;endArrow=oval;endFill=0;" parent="1" edge="1">
          <mxGeometry relative="1" as="geometry">
            <mxPoint x="-4136" y="2070" as="targetPoint" />
            <mxPoint x="-4136" y="2120" as="sourcePoint" />
          </mxGeometry>
        </mxCell>
        <mxCell id="Y4brpUqyJMxe7sHr3JE1-54" value="&lt;font style=&quot;font-size: 7px;&quot;&gt;Durata&lt;/font&gt;" style="text;html=1;align=center;verticalAlign=middle;resizable=0;points=[];autosize=1;strokeColor=none;fillColor=none;" parent="1" vertex="1">
          <mxGeometry x="-4157" y="2040" width="40" height="30" as="geometry" />
        </mxCell>
        <mxCell id="Y4brpUqyJMxe7sHr3JE1-55" value="&lt;font style=&quot;font-size: 7px;&quot;&gt;Nome&lt;/font&gt;" style="text;html=1;align=center;verticalAlign=middle;resizable=0;points=[];autosize=1;strokeColor=none;fillColor=none;" parent="1" vertex="1">
          <mxGeometry x="-4128" y="2040" width="40" height="30" as="geometry" />
        </mxCell>
        <mxCell id="Y4brpUqyJMxe7sHr3JE1-73" style="edgeStyle=orthogonalEdgeStyle;rounded=0;orthogonalLoop=1;jettySize=auto;html=1;entryX=0.5;entryY=0;entryDx=0;entryDy=0;endArrow=none;endFill=0;" parent="1" source="Y4brpUqyJMxe7sHr3JE1-57" target="Y4brpUqyJMxe7sHr3JE1-28" edge="1">
          <mxGeometry relative="1" as="geometry" />
        </mxCell>
        <mxCell id="Y4brpUqyJMxe7sHr3JE1-57" value="Svolge" style="rhombus;whiteSpace=wrap;html=1;" parent="1" vertex="1">
          <mxGeometry x="-3369" y="1640" width="70" height="70" as="geometry" />
        </mxCell>
        <mxCell id="Y4brpUqyJMxe7sHr3JE1-59" value="&lt;font style=&quot;font-size: 7px;&quot;&gt;Nome&lt;/font&gt;" style="text;html=1;align=center;verticalAlign=middle;resizable=0;points=[];autosize=1;strokeColor=none;fillColor=none;" parent="1" vertex="1">
          <mxGeometry x="-3415" y="1780" width="40" height="30" as="geometry" />
        </mxCell>
        <mxCell id="Y4brpUqyJMxe7sHr3JE1-60" style="edgeStyle=orthogonalEdgeStyle;rounded=0;orthogonalLoop=1;jettySize=auto;html=1;endArrow=oval;endFill=0;" parent="1" edge="1">
          <mxGeometry relative="1" as="geometry">
            <mxPoint x="-3364.11" y="1810" as="targetPoint" />
            <mxPoint x="-3364.11" y="1860" as="sourcePoint" />
          </mxGeometry>
        </mxCell>
        <mxCell id="Y4brpUqyJMxe7sHr3JE1-61" value="&lt;font style=&quot;font-size: 7px;&quot;&gt;Cognome&lt;/font&gt;" style="text;html=1;align=center;verticalAlign=middle;resizable=0;points=[];autosize=1;strokeColor=none;fillColor=none;" parent="1" vertex="1">
          <mxGeometry x="-3388" y="1780" width="50" height="30" as="geometry" />
        </mxCell>
        <mxCell id="Y4brpUqyJMxe7sHr3JE1-62" style="edgeStyle=orthogonalEdgeStyle;rounded=0;orthogonalLoop=1;jettySize=auto;html=1;endArrow=oval;endFill=0;" parent="1" edge="1">
          <mxGeometry relative="1" as="geometry">
            <mxPoint x="-3354" y="1830" as="targetPoint" />
            <mxPoint x="-3404" y="1830" as="sourcePoint" />
          </mxGeometry>
        </mxCell>
        <mxCell id="Y4brpUqyJMxe7sHr3JE1-63" style="edgeStyle=orthogonalEdgeStyle;rounded=0;orthogonalLoop=1;jettySize=auto;html=1;endArrow=oval;endFill=0;" parent="1" edge="1">
          <mxGeometry relative="1" as="geometry">
            <mxPoint x="-3294" y="1810" as="targetPoint" />
            <mxPoint x="-3294" y="1860" as="sourcePoint" />
          </mxGeometry>
        </mxCell>
        <mxCell id="Y4brpUqyJMxe7sHr3JE1-64" value="&lt;font style=&quot;font-size: 7px;&quot;&gt;Stato&lt;/font&gt;" style="text;html=1;align=center;verticalAlign=middle;resizable=0;points=[];autosize=1;strokeColor=none;fillColor=none;" parent="1" vertex="1">
          <mxGeometry x="-3314" y="1780" width="40" height="30" as="geometry" />
        </mxCell>
        <mxCell id="Y4brpUqyJMxe7sHr3JE1-65" style="edgeStyle=orthogonalEdgeStyle;rounded=0;orthogonalLoop=1;jettySize=auto;html=1;endArrow=oval;endFill=0;" parent="1" edge="1">
          <mxGeometry relative="1" as="geometry">
            <mxPoint x="-3270" y="1810" as="targetPoint" />
            <mxPoint x="-3270" y="1860" as="sourcePoint" />
          </mxGeometry>
        </mxCell>
        <mxCell id="Y4brpUqyJMxe7sHr3JE1-66" value="&lt;font style=&quot;font-size: 7px;&quot;&gt;Città&lt;/font&gt;" style="text;html=1;align=center;verticalAlign=middle;resizable=0;points=[];autosize=1;strokeColor=none;fillColor=none;" parent="1" vertex="1">
          <mxGeometry x="-3290" y="1780" width="40" height="30" as="geometry" />
        </mxCell>
        <mxCell id="Y4brpUqyJMxe7sHr3JE1-67" style="edgeStyle=orthogonalEdgeStyle;rounded=0;orthogonalLoop=1;jettySize=auto;html=1;endArrow=oval;endFill=0;" parent="1" edge="1">
          <mxGeometry relative="1" as="geometry">
            <mxPoint x="-3444" y="1880" as="targetPoint" />
            <mxPoint x="-3404.23" y="1880" as="sourcePoint" />
          </mxGeometry>
        </mxCell>
        <mxCell id="Y4brpUqyJMxe7sHr3JE1-68" value="&lt;font style=&quot;font-size: 7px;&quot;&gt;Età&lt;/font&gt;" style="text;html=1;align=center;verticalAlign=middle;resizable=0;points=[];autosize=1;strokeColor=none;fillColor=none;" parent="1" vertex="1">
          <mxGeometry x="-3475" y="1862" width="30" height="30" as="geometry" />
        </mxCell>
        <mxCell id="Y4brpUqyJMxe7sHr3JE1-69" style="edgeStyle=orthogonalEdgeStyle;rounded=0;orthogonalLoop=1;jettySize=auto;html=1;endArrow=oval;endFill=0;" parent="1" edge="1">
          <mxGeometry relative="1" as="geometry">
            <mxPoint x="-3257" y="1830" as="targetPoint" />
            <mxPoint x="-3307" y="1830" as="sourcePoint" />
          </mxGeometry>
        </mxCell>
        <mxCell id="Y4brpUqyJMxe7sHr3JE1-70" style="edgeStyle=orthogonalEdgeStyle;rounded=0;orthogonalLoop=1;jettySize=auto;html=1;endArrow=oval;endFill=1;" parent="1" edge="1">
          <mxGeometry relative="1" as="geometry">
            <mxPoint x="-3443.77" y="1910" as="targetPoint" />
            <mxPoint x="-3404" y="1910" as="sourcePoint" />
          </mxGeometry>
        </mxCell>
        <mxCell id="Y4brpUqyJMxe7sHr3JE1-71" value="&lt;font style=&quot;font-size: 7px;&quot;&gt;Username&lt;/font&gt;" style="text;html=1;align=center;verticalAlign=middle;resizable=0;points=[];autosize=1;strokeColor=none;fillColor=none;" parent="1" vertex="1">
          <mxGeometry x="-3501" y="1892" width="60" height="30" as="geometry" />
        </mxCell>
        <mxCell id="Y4brpUqyJMxe7sHr3JE1-74" value="(0,n)" style="text;html=1;align=center;verticalAlign=middle;resizable=0;points=[];autosize=1;strokeColor=none;fillColor=none;" parent="1" vertex="1">
          <mxGeometry x="-3341" y="1833" width="50" height="30" as="geometry" />
        </mxCell>
        <mxCell id="Y4brpUqyJMxe7sHr3JE1-79" style="edgeStyle=orthogonalEdgeStyle;rounded=0;orthogonalLoop=1;jettySize=auto;html=1;endArrow=none;endFill=0;entryX=0.5;entryY=0;entryDx=0;entryDy=0;" parent="1" source="Y4brpUqyJMxe7sHr3JE1-76" target="Y4brpUqyJMxe7sHr3JE1-57" edge="1">
          <mxGeometry relative="1" as="geometry">
            <mxPoint x="-3334" y="1612" as="targetPoint" />
          </mxGeometry>
        </mxCell>
        <mxCell id="Y4brpUqyJMxe7sHr3JE1-81" style="edgeStyle=orthogonalEdgeStyle;rounded=0;orthogonalLoop=1;jettySize=auto;html=1;entryX=1;entryY=0.5;entryDx=0;entryDy=0;endArrow=none;endFill=0;" parent="1" source="Y4brpUqyJMxe7sHr3JE1-76" target="Y4brpUqyJMxe7sHr3JE1-80" edge="1">
          <mxGeometry relative="1" as="geometry" />
        </mxCell>
        <mxCell id="Y4brpUqyJMxe7sHr3JE1-85" style="edgeStyle=orthogonalEdgeStyle;rounded=0;orthogonalLoop=1;jettySize=auto;html=1;entryX=0;entryY=0.5;entryDx=0;entryDy=0;endArrow=none;endFill=0;" parent="1" source="Y4brpUqyJMxe7sHr3JE1-76" target="Y4brpUqyJMxe7sHr3JE1-82" edge="1">
          <mxGeometry relative="1" as="geometry" />
        </mxCell>
        <mxCell id="Y4brpUqyJMxe7sHr3JE1-219" style="edgeStyle=orthogonalEdgeStyle;rounded=0;orthogonalLoop=1;jettySize=auto;html=1;exitX=0.75;exitY=1;exitDx=0;exitDy=0;endArrow=none;endFill=0;" parent="1" edge="1">
          <mxGeometry relative="1" as="geometry">
            <mxPoint x="-3314" y="1597" as="targetPoint" />
            <mxPoint x="-3299" y="1579" as="sourcePoint" />
          </mxGeometry>
        </mxCell>
        <mxCell id="Y4brpUqyJMxe7sHr3JE1-228" style="edgeStyle=orthogonalEdgeStyle;rounded=0;orthogonalLoop=1;jettySize=auto;html=1;exitX=1;exitY=1;exitDx=0;exitDy=0;endArrow=none;endFill=0;" parent="1" edge="1">
          <mxGeometry relative="1" as="geometry">
            <mxPoint x="-3274" y="1597" as="targetPoint" />
            <mxPoint x="-3264" y="1579" as="sourcePoint" />
          </mxGeometry>
        </mxCell>
        <mxCell id="Y4brpUqyJMxe7sHr3JE1-76" value="&lt;font style=&quot;font-size: 17px;&quot;&gt;Ricerca&lt;/font&gt;" style="rounded=0;whiteSpace=wrap;html=1;" parent="1" vertex="1">
          <mxGeometry x="-3404" y="1512" width="140" height="70" as="geometry" />
        </mxCell>
        <mxCell id="Y4brpUqyJMxe7sHr3JE1-78" value="(1,1)" style="text;html=1;align=center;verticalAlign=middle;resizable=0;points=[];autosize=1;strokeColor=none;fillColor=none;" parent="1" vertex="1">
          <mxGeometry x="-3341" y="1610" width="50" height="30" as="geometry" />
        </mxCell>
        <mxCell id="Y4brpUqyJMxe7sHr3JE1-80" value="Su" style="rhombus;whiteSpace=wrap;html=1;" parent="1" vertex="1">
          <mxGeometry x="-3494" y="1527" width="40" height="40" as="geometry" />
        </mxCell>
        <mxCell id="Y4brpUqyJMxe7sHr3JE1-92" style="edgeStyle=orthogonalEdgeStyle;rounded=0;orthogonalLoop=1;jettySize=auto;html=1;entryX=0;entryY=0.5;entryDx=0;entryDy=0;endArrow=none;endFill=0;" parent="1" source="Y4brpUqyJMxe7sHr3JE1-82" target="Y4brpUqyJMxe7sHr3JE1-91" edge="1">
          <mxGeometry relative="1" as="geometry" />
        </mxCell>
        <mxCell id="Y4brpUqyJMxe7sHr3JE1-82" value="Su" style="rhombus;whiteSpace=wrap;html=1;" parent="1" vertex="1">
          <mxGeometry x="-3204" y="1527" width="40" height="40" as="geometry" />
        </mxCell>
        <mxCell id="Y4brpUqyJMxe7sHr3JE1-86" value="(1,1)" style="text;html=1;align=center;verticalAlign=middle;resizable=0;points=[];autosize=1;strokeColor=none;fillColor=none;" parent="1" vertex="1">
          <mxGeometry x="-3454" y="1542" width="50" height="30" as="geometry" />
        </mxCell>
        <mxCell id="Y4brpUqyJMxe7sHr3JE1-87" value="(1,1)" style="text;html=1;align=center;verticalAlign=middle;resizable=0;points=[];autosize=1;strokeColor=none;fillColor=none;" parent="1" vertex="1">
          <mxGeometry x="-3264" y="1542" width="50" height="30" as="geometry" />
        </mxCell>
        <mxCell id="Y4brpUqyJMxe7sHr3JE1-90" style="edgeStyle=orthogonalEdgeStyle;rounded=0;orthogonalLoop=1;jettySize=auto;html=1;entryX=0;entryY=0.5;entryDx=0;entryDy=0;endArrow=none;endFill=0;" parent="1" target="Y4brpUqyJMxe7sHr3JE1-80" edge="1">
          <mxGeometry relative="1" as="geometry">
            <mxPoint x="-3541" y="1365.999999999999" as="sourcePoint" />
          </mxGeometry>
        </mxCell>
        <mxCell id="Y4brpUqyJMxe7sHr3JE1-104" style="edgeStyle=orthogonalEdgeStyle;rounded=0;orthogonalLoop=1;jettySize=auto;html=1;entryX=1;entryY=0.5;entryDx=0;entryDy=0;endArrow=none;endFill=0;" parent="1" target="Y4brpUqyJMxe7sHr3JE1-103" edge="1">
          <mxGeometry relative="1" as="geometry">
            <mxPoint x="-3681" y="1365.999999999999" as="sourcePoint" />
          </mxGeometry>
        </mxCell>
        <mxCell id="Y4brpUqyJMxe7sHr3JE1-154" style="edgeStyle=orthogonalEdgeStyle;rounded=0;orthogonalLoop=1;jettySize=auto;html=1;entryX=0;entryY=0.5;entryDx=0;entryDy=0;endArrow=none;endFill=0;" parent="1" target="Y4brpUqyJMxe7sHr3JE1-151" edge="1">
          <mxGeometry relative="1" as="geometry">
            <mxPoint x="-3610" y="1401" as="sourcePoint" />
            <Array as="points">
              <mxPoint x="-3610" y="1755" />
            </Array>
          </mxGeometry>
        </mxCell>
        <mxCell id="Y4brpUqyJMxe7sHr3JE1-91" value="&lt;font style=&quot;font-size: 17px;&quot;&gt;Festival&lt;/font&gt;" style="rounded=0;whiteSpace=wrap;html=1;" parent="1" vertex="1">
          <mxGeometry x="-3104" y="1512" width="140" height="70" as="geometry" />
        </mxCell>
        <mxCell id="Y4brpUqyJMxe7sHr3JE1-99" style="edgeStyle=orthogonalEdgeStyle;rounded=0;orthogonalLoop=1;jettySize=auto;html=1;endArrow=oval;endFill=0;" parent="1" edge="1">
          <mxGeometry relative="1" as="geometry">
            <mxPoint x="-3662.25" y="1282" as="targetPoint" />
            <mxPoint x="-3662.2214285714285" y="1332" as="sourcePoint" />
          </mxGeometry>
        </mxCell>
        <mxCell id="Y4brpUqyJMxe7sHr3JE1-100" value="&lt;font style=&quot;font-size: 7px;&quot;&gt;Genere&lt;/font&gt;" style="text;html=1;align=center;verticalAlign=middle;resizable=0;points=[];autosize=1;strokeColor=none;fillColor=none;" parent="1" vertex="1">
          <mxGeometry x="-3689" y="1253" width="50" height="30" as="geometry" />
        </mxCell>
        <mxCell id="Y4brpUqyJMxe7sHr3JE1-101" style="edgeStyle=orthogonalEdgeStyle;rounded=0;orthogonalLoop=1;jettySize=auto;html=1;endArrow=oval;endFill=1;" parent="1" edge="1">
          <mxGeometry relative="1" as="geometry">
            <mxPoint x="-3630" y="1282" as="targetPoint" />
            <mxPoint x="-3629.9714285714285" y="1332" as="sourcePoint" />
          </mxGeometry>
        </mxCell>
        <mxCell id="Y4brpUqyJMxe7sHr3JE1-102" value="&lt;font style=&quot;font-size: 7px;&quot;&gt;Nome d&#39;arte&lt;/font&gt;" style="text;html=1;align=center;verticalAlign=middle;resizable=0;points=[];autosize=1;strokeColor=none;fillColor=none;" parent="1" vertex="1">
          <mxGeometry x="-3658" y="1253" width="60" height="30" as="geometry" />
        </mxCell>
        <mxCell id="Y4brpUqyJMxe7sHr3JE1-103" value="Porta" style="rhombus;whiteSpace=wrap;html=1;" parent="1" vertex="1">
          <mxGeometry x="-3840" y="1527" width="69" height="69" as="geometry" />
        </mxCell>
        <mxCell id="Y4brpUqyJMxe7sHr3JE1-108" value="&lt;font style=&quot;font-size: 7px;&quot;&gt;Nome&lt;/font&gt;" style="text;html=1;align=center;verticalAlign=middle;resizable=0;points=[];autosize=1;strokeColor=none;fillColor=none;" parent="1" vertex="1">
          <mxGeometry x="-3684" y="2138" width="40" height="30" as="geometry" />
        </mxCell>
        <mxCell id="Y4brpUqyJMxe7sHr3JE1-109" value="" style="endArrow=oval;html=1;rounded=0;endFill=1;" parent="1" edge="1">
          <mxGeometry width="50" height="50" relative="1" as="geometry">
            <mxPoint x="-3708" y="1366" as="sourcePoint" />
            <mxPoint x="-3708" y="2167" as="targetPoint" />
          </mxGeometry>
        </mxCell>
        <mxCell id="Y4brpUqyJMxe7sHr3JE1-111" style="edgeStyle=orthogonalEdgeStyle;rounded=0;orthogonalLoop=1;jettySize=auto;html=1;entryX=0;entryY=0.5;entryDx=0;entryDy=0;endArrow=none;endFill=0;" parent="1" source="Y4brpUqyJMxe7sHr3JE1-110" target="Y4brpUqyJMxe7sHr3JE1-28" edge="1">
          <mxGeometry relative="1" as="geometry" />
        </mxCell>
        <mxCell id="Y4brpUqyJMxe7sHr3JE1-118" style="edgeStyle=orthogonalEdgeStyle;rounded=0;orthogonalLoop=1;jettySize=auto;html=1;endArrow=oval;endFill=0;" parent="1" source="Y4brpUqyJMxe7sHr3JE1-110" edge="1">
          <mxGeometry relative="1" as="geometry">
            <mxPoint x="-3600" y="1990" as="targetPoint" />
          </mxGeometry>
        </mxCell>
        <mxCell id="Y4brpUqyJMxe7sHr3JE1-764" style="edgeStyle=orthogonalEdgeStyle;rounded=0;orthogonalLoop=1;jettySize=auto;html=1;entryX=0.5;entryY=1;entryDx=0;entryDy=0;endArrow=none;endFill=0;exitX=0.5;exitY=0;exitDx=0;exitDy=0;" parent="1" source="Y4brpUqyJMxe7sHr3JE1-110" target="Y4brpUqyJMxe7sHr3JE1-751" edge="1">
          <mxGeometry relative="1" as="geometry">
            <Array as="points">
              <mxPoint x="-3599" y="1460" />
              <mxPoint x="-3433" y="1460" />
            </Array>
          </mxGeometry>
        </mxCell>
        <mxCell id="Y4brpUqyJMxe7sHr3JE1-765" style="edgeStyle=orthogonalEdgeStyle;rounded=0;orthogonalLoop=1;jettySize=auto;html=1;entryX=0.5;entryY=1;entryDx=0;entryDy=0;exitX=1;exitY=0;exitDx=0;exitDy=0;endArrow=none;endFill=0;" parent="1" source="Y4brpUqyJMxe7sHr3JE1-110" target="Y4brpUqyJMxe7sHr3JE1-752" edge="1">
          <mxGeometry relative="1" as="geometry">
            <Array as="points">
              <mxPoint x="-3574" y="1830" />
              <mxPoint x="-3590" y="1830" />
              <mxPoint x="-3590" y="1480" />
              <mxPoint x="-3240" y="1480" />
              <mxPoint x="-3240" y="1402" />
            </Array>
          </mxGeometry>
        </mxCell>
        <mxCell id="Y4brpUqyJMxe7sHr3JE1-110" value="Valuta" style="rhombus;whiteSpace=wrap;html=1;" parent="1" vertex="1">
          <mxGeometry x="-3649" y="1848" width="100" height="100" as="geometry" />
        </mxCell>
        <mxCell id="Y4brpUqyJMxe7sHr3JE1-114" value="(0,n)" style="text;html=1;align=center;verticalAlign=middle;resizable=0;points=[];autosize=1;strokeColor=none;fillColor=none;" parent="1" vertex="1">
          <mxGeometry x="-3544" y="1892" width="50" height="30" as="geometry" />
        </mxCell>
        <mxCell id="Y4brpUqyJMxe7sHr3JE1-115" value="(0,n)" style="text;html=1;align=center;verticalAlign=middle;resizable=0;points=[];autosize=1;strokeColor=none;fillColor=none;" parent="1" vertex="1">
          <mxGeometry x="-4181" y="2091" width="50" height="30" as="geometry" />
        </mxCell>
        <mxCell id="Y4brpUqyJMxe7sHr3JE1-119" value="&lt;font style=&quot;font-size: 7px;&quot;&gt;Voto&lt;/font&gt;" style="text;html=1;align=center;verticalAlign=middle;resizable=0;points=[];autosize=1;strokeColor=none;fillColor=none;" parent="1" vertex="1">
          <mxGeometry x="-3621" y="1986" width="40" height="30" as="geometry" />
        </mxCell>
        <mxCell id="Y4brpUqyJMxe7sHr3JE1-120" style="edgeStyle=orthogonalEdgeStyle;rounded=0;orthogonalLoop=1;jettySize=auto;html=1;endArrow=oval;endFill=0;" parent="1" edge="1">
          <mxGeometry relative="1" as="geometry">
            <mxPoint x="-3084" y="1462" as="targetPoint" />
            <mxPoint x="-3083.9714285714285" y="1512" as="sourcePoint" />
          </mxGeometry>
        </mxCell>
        <mxCell id="Y4brpUqyJMxe7sHr3JE1-121" value="&lt;font style=&quot;font-size: 7px;&quot;&gt;Località&lt;/font&gt;" style="text;html=1;align=center;verticalAlign=middle;resizable=0;points=[];autosize=1;strokeColor=none;fillColor=none;" parent="1" vertex="1">
          <mxGeometry x="-3110" y="1432" width="50" height="30" as="geometry" />
        </mxCell>
        <mxCell id="Y4brpUqyJMxe7sHr3JE1-122" style="edgeStyle=orthogonalEdgeStyle;rounded=0;orthogonalLoop=1;jettySize=auto;html=1;endArrow=oval;endFill=0;" parent="1" edge="1">
          <mxGeometry relative="1" as="geometry">
            <mxPoint x="-3034.17" y="1462" as="targetPoint" />
            <mxPoint x="-3034.1414285714286" y="1512" as="sourcePoint" />
          </mxGeometry>
        </mxCell>
        <mxCell id="Y4brpUqyJMxe7sHr3JE1-123" value="&lt;font style=&quot;font-size: 7px;&quot;&gt;Conduttore&lt;/font&gt;" style="text;html=1;align=center;verticalAlign=middle;resizable=0;points=[];autosize=1;strokeColor=none;fillColor=none;" parent="1" vertex="1">
          <mxGeometry x="-3065" y="1432" width="60" height="30" as="geometry" />
        </mxCell>
        <mxCell id="Y4brpUqyJMxe7sHr3JE1-124" value="(0,1)" style="text;html=1;align=center;verticalAlign=middle;resizable=0;points=[];autosize=1;strokeColor=none;fillColor=none;" parent="1" vertex="1">
          <mxGeometry x="-3148" y="1542" width="50" height="30" as="geometry" />
        </mxCell>
        <mxCell id="Y4brpUqyJMxe7sHr3JE1-125" value="(0,n)" style="text;html=1;align=center;verticalAlign=middle;resizable=0;points=[];autosize=1;strokeColor=none;fillColor=none;" parent="1" vertex="1">
          <mxGeometry x="-3541" y="1542" width="50" height="30" as="geometry" />
        </mxCell>
        <mxCell id="Y4brpUqyJMxe7sHr3JE1-126" style="edgeStyle=orthogonalEdgeStyle;rounded=0;orthogonalLoop=1;jettySize=auto;html=1;endArrow=oval;endFill=1;" parent="1" edge="1">
          <mxGeometry relative="1" as="geometry">
            <mxPoint x="-2984" y="1462" as="targetPoint" />
            <mxPoint x="-2983.9714285714285" y="1512" as="sourcePoint" />
          </mxGeometry>
        </mxCell>
        <mxCell id="Y4brpUqyJMxe7sHr3JE1-127" value="&lt;font style=&quot;font-size: 7px;&quot;&gt;ID&lt;/font&gt;" style="text;html=1;align=center;verticalAlign=middle;resizable=0;points=[];autosize=1;strokeColor=none;fillColor=none;" parent="1" vertex="1">
          <mxGeometry x="-2999" y="1432" width="30" height="30" as="geometry" />
        </mxCell>
        <mxCell id="Y4brpUqyJMxe7sHr3JE1-129" style="edgeStyle=orthogonalEdgeStyle;rounded=0;orthogonalLoop=1;jettySize=auto;html=1;entryX=1;entryY=0.5;entryDx=0;entryDy=0;endArrow=none;endFill=0;" parent="1" source="Y4brpUqyJMxe7sHr3JE1-128" target="Y4brpUqyJMxe7sHr3JE1-91" edge="1">
          <mxGeometry relative="1" as="geometry" />
        </mxCell>
        <mxCell id="Y4brpUqyJMxe7sHr3JE1-133" style="edgeStyle=orthogonalEdgeStyle;rounded=0;orthogonalLoop=1;jettySize=auto;html=1;entryX=0.5;entryY=0;entryDx=0;entryDy=0;endArrow=none;endFill=0;" parent="1" source="Y4brpUqyJMxe7sHr3JE1-128" target="Y4brpUqyJMxe7sHr3JE1-132" edge="1">
          <mxGeometry relative="1" as="geometry" />
        </mxCell>
        <mxCell id="Y4brpUqyJMxe7sHr3JE1-128" value="Istanza di" style="rhombus;whiteSpace=wrap;html=1;" parent="1" vertex="1">
          <mxGeometry x="-2830" y="1507" width="80" height="80" as="geometry" />
        </mxCell>
        <mxCell id="Y4brpUqyJMxe7sHr3JE1-130" value="(1,n)" style="text;html=1;align=center;verticalAlign=middle;resizable=0;points=[];autosize=1;strokeColor=none;fillColor=none;" parent="1" vertex="1">
          <mxGeometry x="-2870" y="1542" width="50" height="30" as="geometry" />
        </mxCell>
        <mxCell id="Y4brpUqyJMxe7sHr3JE1-143" style="edgeStyle=orthogonalEdgeStyle;rounded=0;orthogonalLoop=1;jettySize=auto;html=1;endArrow=oval;endFill=0;" parent="1" source="Y4brpUqyJMxe7sHr3JE1-132" edge="1">
          <mxGeometry relative="1" as="geometry">
            <mxPoint x="-2894" y="1657" as="targetPoint" />
          </mxGeometry>
        </mxCell>
        <mxCell id="Y4brpUqyJMxe7sHr3JE1-132" value="&lt;font style=&quot;font-size: 17px;&quot;&gt;Festival Passati&lt;/font&gt;" style="rounded=0;whiteSpace=wrap;html=1;" parent="1" vertex="1">
          <mxGeometry x="-2860" y="1622" width="140" height="70" as="geometry" />
        </mxCell>
        <mxCell id="Y4brpUqyJMxe7sHr3JE1-135" value="&lt;font style=&quot;font-size: 7px;&quot;&gt;Anno&lt;/font&gt;" style="text;strokeColor=none;align=center;fillColor=none;html=1;verticalAlign=middle;whiteSpace=wrap;rounded=0;" parent="1" vertex="1">
          <mxGeometry x="-2939" y="1640" width="60" height="30" as="geometry" />
        </mxCell>
        <mxCell id="Y4brpUqyJMxe7sHr3JE1-136" value="" style="endArrow=oval;html=1;rounded=0;endFill=1;" parent="1" edge="1">
          <mxGeometry width="50" height="50" relative="1" as="geometry">
            <mxPoint x="-2874" y="1547" as="sourcePoint" />
            <mxPoint x="-2874" y="1682" as="targetPoint" />
          </mxGeometry>
        </mxCell>
        <mxCell id="Y4brpUqyJMxe7sHr3JE1-140" style="edgeStyle=orthogonalEdgeStyle;rounded=0;orthogonalLoop=1;jettySize=auto;html=1;entryX=1;entryY=0.5;entryDx=0;entryDy=0;endArrow=none;endFill=0;" parent="1" source="Y4brpUqyJMxe7sHr3JE1-137" target="Y4brpUqyJMxe7sHr3JE1-20" edge="1">
          <mxGeometry relative="1" as="geometry" />
        </mxCell>
        <mxCell id="Y4brpUqyJMxe7sHr3JE1-142" style="edgeStyle=orthogonalEdgeStyle;rounded=0;orthogonalLoop=1;jettySize=auto;html=1;entryX=0.5;entryY=1;entryDx=0;entryDy=0;endArrow=none;endFill=0;" parent="1" source="Y4brpUqyJMxe7sHr3JE1-137" target="Y4brpUqyJMxe7sHr3JE1-141" edge="1">
          <mxGeometry relative="1" as="geometry" />
        </mxCell>
        <mxCell id="Y4brpUqyJMxe7sHr3JE1-137" value="Gestisce" style="rhombus;whiteSpace=wrap;html=1;" parent="1" vertex="1">
          <mxGeometry x="-3069" y="2116" width="70" height="70" as="geometry" />
        </mxCell>
        <mxCell id="Y4brpUqyJMxe7sHr3JE1-138" value="(1,1)" style="text;html=1;align=center;verticalAlign=middle;resizable=0;points=[];autosize=1;strokeColor=none;fillColor=none;" parent="1" vertex="1">
          <mxGeometry x="-2790" y="1592" width="50" height="30" as="geometry" />
        </mxCell>
        <mxCell id="Y4brpUqyJMxe7sHr3JE1-145" style="edgeStyle=orthogonalEdgeStyle;rounded=0;orthogonalLoop=1;jettySize=auto;html=1;endArrow=oval;endFill=0;" parent="1" edge="1">
          <mxGeometry relative="1" as="geometry">
            <mxPoint x="-2978" y="1910" as="targetPoint" />
            <mxPoint x="-2977.9999999999995" y="1970" as="sourcePoint" />
          </mxGeometry>
        </mxCell>
        <mxCell id="Y4brpUqyJMxe7sHr3JE1-149" style="edgeStyle=orthogonalEdgeStyle;rounded=0;orthogonalLoop=1;jettySize=auto;html=1;endArrow=oval;endFill=0;" parent="1" source="Y4brpUqyJMxe7sHr3JE1-141" edge="1">
          <mxGeometry relative="1" as="geometry">
            <mxPoint x="-3154" y="2005.0000000000002" as="targetPoint" />
          </mxGeometry>
        </mxCell>
        <mxCell id="Y4brpUqyJMxe7sHr3JE1-141" value="&lt;font style=&quot;font-size: 17px;&quot;&gt;Pagine&lt;/font&gt;" style="rounded=0;whiteSpace=wrap;html=1;" parent="1" vertex="1">
          <mxGeometry x="-3104" y="1970" width="140" height="70" as="geometry" />
        </mxCell>
        <mxCell id="Y4brpUqyJMxe7sHr3JE1-146" value="&lt;font style=&quot;font-size: 7px;&quot;&gt;Num.pagina festival&lt;br&gt;&lt;/font&gt;" style="text;html=1;align=center;verticalAlign=middle;resizable=0;points=[];autosize=1;strokeColor=none;fillColor=none;" parent="1" vertex="1">
          <mxGeometry x="-3024" y="1880" width="90" height="30" as="geometry" />
        </mxCell>
        <mxCell id="Y4brpUqyJMxe7sHr3JE1-150" value="&lt;font style=&quot;font-size: 7px;&quot;&gt;Num.pagina artista&lt;br&gt;&lt;/font&gt;" style="text;html=1;align=center;verticalAlign=middle;resizable=0;points=[];autosize=1;strokeColor=none;fillColor=none;" parent="1" vertex="1">
          <mxGeometry x="-3234" y="1988" width="80" height="30" as="geometry" />
        </mxCell>
        <mxCell id="Y4brpUqyJMxe7sHr3JE1-152" style="edgeStyle=orthogonalEdgeStyle;rounded=0;orthogonalLoop=1;jettySize=auto;html=1;entryX=0.5;entryY=1;entryDx=0;entryDy=0;endArrow=none;endFill=0;" parent="1" source="Y4brpUqyJMxe7sHr3JE1-151" target="Y4brpUqyJMxe7sHr3JE1-91" edge="1">
          <mxGeometry relative="1" as="geometry" />
        </mxCell>
        <mxCell id="Y4brpUqyJMxe7sHr3JE1-153" style="edgeStyle=orthogonalEdgeStyle;rounded=0;orthogonalLoop=1;jettySize=auto;html=1;entryX=0.5;entryY=0;entryDx=0;entryDy=0;endArrow=none;endFill=0;" parent="1" source="Y4brpUqyJMxe7sHr3JE1-151" target="Y4brpUqyJMxe7sHr3JE1-141" edge="1">
          <mxGeometry relative="1" as="geometry" />
        </mxCell>
        <mxCell id="Y4brpUqyJMxe7sHr3JE1-151" value="Contiene" style="rhombus;whiteSpace=wrap;html=1;" parent="1" vertex="1">
          <mxGeometry x="-3069" y="1720" width="70" height="70" as="geometry" />
        </mxCell>
        <mxCell id="Y4brpUqyJMxe7sHr3JE1-156" value="" style="endArrow=oval;html=1;rounded=0;endFill=1;" parent="1" edge="1">
          <mxGeometry width="50" height="50" relative="1" as="geometry">
            <mxPoint x="-3116.43" y="1730" as="sourcePoint" />
            <mxPoint x="-3116.43" y="2040" as="targetPoint" />
          </mxGeometry>
        </mxCell>
        <mxCell id="Y4brpUqyJMxe7sHr3JE1-157" value="" style="endArrow=oval;html=1;rounded=0;endFill=1;" parent="1" edge="1">
          <mxGeometry width="50" height="50" relative="1" as="geometry">
            <mxPoint x="-3134" y="1755" as="sourcePoint" />
            <mxPoint x="-3134" y="2040" as="targetPoint" />
          </mxGeometry>
        </mxCell>
        <mxCell id="Y4brpUqyJMxe7sHr3JE1-158" value="" style="endArrow=none;html=1;rounded=0;" parent="1" edge="1">
          <mxGeometry width="50" height="50" relative="1" as="geometry">
            <mxPoint x="-3034" y="1680" as="sourcePoint" />
            <mxPoint x="-2924" y="1680" as="targetPoint" />
          </mxGeometry>
        </mxCell>
        <mxCell id="Y4brpUqyJMxe7sHr3JE1-159" value="" style="endArrow=none;html=1;rounded=0;" parent="1" edge="1">
          <mxGeometry width="50" height="50" relative="1" as="geometry">
            <mxPoint x="-2924" y="1940" as="sourcePoint" />
            <mxPoint x="-2924" y="1680" as="targetPoint" />
          </mxGeometry>
        </mxCell>
        <mxCell id="Y4brpUqyJMxe7sHr3JE1-160" value="" style="endArrow=oval;html=1;rounded=0;endFill=1;" parent="1" edge="1">
          <mxGeometry width="50" height="50" relative="1" as="geometry">
            <mxPoint x="-2924" y="1940" as="sourcePoint" />
            <mxPoint x="-3004" y="1940" as="targetPoint" />
          </mxGeometry>
        </mxCell>
        <mxCell id="Y4brpUqyJMxe7sHr3JE1-167" style="edgeStyle=orthogonalEdgeStyle;rounded=0;orthogonalLoop=1;jettySize=auto;html=1;entryX=0.5;entryY=1;entryDx=0;entryDy=0;endArrow=none;endFill=0;" parent="1" source="Y4brpUqyJMxe7sHr3JE1-161" target="Y4brpUqyJMxe7sHr3JE1-164" edge="1">
          <mxGeometry relative="1" as="geometry" />
        </mxCell>
        <mxCell id="Y4brpUqyJMxe7sHr3JE1-182" style="edgeStyle=orthogonalEdgeStyle;rounded=0;orthogonalLoop=1;jettySize=auto;html=1;endArrow=oval;endFill=0;" parent="1" source="Y4brpUqyJMxe7sHr3JE1-161" edge="1">
          <mxGeometry relative="1" as="geometry">
            <mxPoint x="-4284" y="2390" as="targetPoint" />
          </mxGeometry>
        </mxCell>
        <mxCell id="Y4brpUqyJMxe7sHr3JE1-161" value="&lt;font style=&quot;font-size: 17px;&quot;&gt;Punteggio&lt;/font&gt;" style="rounded=0;whiteSpace=wrap;html=1;" parent="1" vertex="1">
          <mxGeometry x="-4238" y="2355" width="140" height="70" as="geometry" />
        </mxCell>
        <mxCell id="Y4brpUqyJMxe7sHr3JE1-164" value="Di" style="rhombus;whiteSpace=wrap;html=1;" parent="1" vertex="1">
          <mxGeometry x="-4188" y="2247" width="40" height="40" as="geometry" />
        </mxCell>
        <mxCell id="Y4brpUqyJMxe7sHr3JE1-168" style="edgeStyle=orthogonalEdgeStyle;rounded=0;orthogonalLoop=1;jettySize=auto;html=1;entryX=0.5;entryY=1;entryDx=0;entryDy=0;endArrow=none;endFill=0;exitX=0.5;exitY=0;exitDx=0;exitDy=0;" parent="1" source="Y4brpUqyJMxe7sHr3JE1-164" edge="1">
          <mxGeometry relative="1" as="geometry">
            <mxPoint x="-4168.26" y="2258" as="sourcePoint" />
            <mxPoint x="-4168.26" y="2190" as="targetPoint" />
          </mxGeometry>
        </mxCell>
        <mxCell id="Y4brpUqyJMxe7sHr3JE1-173" style="edgeStyle=orthogonalEdgeStyle;rounded=0;orthogonalLoop=1;jettySize=auto;html=1;endArrow=oval;endFill=0;" parent="1" edge="1">
          <mxGeometry relative="1" as="geometry">
            <mxPoint x="-3684" y="2180" as="targetPoint" />
            <mxPoint x="-3734" y="2180" as="sourcePoint" />
          </mxGeometry>
        </mxCell>
        <mxCell id="Y4brpUqyJMxe7sHr3JE1-174" value="&lt;font style=&quot;font-size: 7px;&quot;&gt;Genere&lt;/font&gt;" style="text;html=1;align=center;verticalAlign=middle;resizable=0;points=[];autosize=1;strokeColor=none;fillColor=none;" parent="1" vertex="1">
          <mxGeometry x="-3687" y="2162.37" width="50" height="30" as="geometry" />
        </mxCell>
        <mxCell id="Y4brpUqyJMxe7sHr3JE1-176" value="" style="endArrow=none;html=1;rounded=0;" parent="1" edge="1">
          <mxGeometry width="50" height="50" relative="1" as="geometry">
            <mxPoint x="-3924" y="2155" as="sourcePoint" />
            <mxPoint x="-3924" y="2080" as="targetPoint" />
          </mxGeometry>
        </mxCell>
        <mxCell id="Y4brpUqyJMxe7sHr3JE1-177" value="" style="endArrow=oval;html=1;rounded=0;endFill=1;" parent="1" edge="1">
          <mxGeometry width="50" height="50" relative="1" as="geometry">
            <mxPoint x="-3924" y="2080" as="sourcePoint" />
            <mxPoint x="-4120" y="2080" as="targetPoint" />
          </mxGeometry>
        </mxCell>
        <mxCell id="Y4brpUqyJMxe7sHr3JE1-179" value="(0,n)" style="text;html=1;align=center;verticalAlign=middle;resizable=0;points=[];autosize=1;strokeColor=none;fillColor=none;" parent="1" vertex="1">
          <mxGeometry x="-3568" y="2121" width="50" height="30" as="geometry" />
        </mxCell>
        <mxCell id="Y4brpUqyJMxe7sHr3JE1-180" value="(0,n)" style="text;html=1;align=center;verticalAlign=middle;resizable=0;points=[];autosize=1;strokeColor=none;fillColor=none;" parent="1" vertex="1">
          <mxGeometry x="-3568" y="2164.37" width="50" height="30" as="geometry" />
        </mxCell>
        <mxCell id="Y4brpUqyJMxe7sHr3JE1-183" value="&lt;font style=&quot;font-size: 7px;&quot;&gt;Voto brano&lt;br&gt;&lt;/font&gt;" style="text;html=1;align=center;verticalAlign=middle;resizable=0;points=[];autosize=1;strokeColor=none;fillColor=none;" parent="1" vertex="1">
          <mxGeometry x="-4340" y="2373" width="60" height="30" as="geometry" />
        </mxCell>
        <mxCell id="Y4brpUqyJMxe7sHr3JE1-184" value="" style="endArrow=none;html=1;rounded=0;" parent="1" edge="1">
          <mxGeometry width="50" height="50" relative="1" as="geometry">
            <mxPoint x="-4264" y="2220" as="sourcePoint" />
            <mxPoint x="-4168" y="2220" as="targetPoint" />
          </mxGeometry>
        </mxCell>
        <mxCell id="Y4brpUqyJMxe7sHr3JE1-185" value="" style="endArrow=oval;html=1;rounded=0;endFill=1;" parent="1" edge="1">
          <mxGeometry width="50" height="50" relative="1" as="geometry">
            <mxPoint x="-4264" y="2220" as="sourcePoint" />
            <mxPoint x="-4264" y="2410" as="targetPoint" />
          </mxGeometry>
        </mxCell>
        <mxCell id="Y4brpUqyJMxe7sHr3JE1-186" value="(1,1)" style="text;html=1;align=center;verticalAlign=middle;resizable=0;points=[];autosize=1;strokeColor=none;fillColor=none;" parent="1" vertex="1">
          <mxGeometry x="-4174" y="2325" width="50" height="30" as="geometry" />
        </mxCell>
        <mxCell id="Y4brpUqyJMxe7sHr3JE1-187" value="(0,n)" style="text;html=1;align=center;verticalAlign=middle;resizable=0;points=[];autosize=1;strokeColor=none;fillColor=none;" parent="1" vertex="1">
          <mxGeometry x="-4174" y="2189" width="50" height="30" as="geometry" />
        </mxCell>
        <mxCell id="Y4brpUqyJMxe7sHr3JE1-191" style="edgeStyle=orthogonalEdgeStyle;rounded=0;orthogonalLoop=1;jettySize=auto;html=1;entryX=1;entryY=0.5;entryDx=0;entryDy=0;endArrow=none;endFill=0;" parent="1" source="Y4brpUqyJMxe7sHr3JE1-190" target="Y4brpUqyJMxe7sHr3JE1-28" edge="1">
          <mxGeometry relative="1" as="geometry">
            <Array as="points">
              <mxPoint x="-3264" y="1873" />
            </Array>
          </mxGeometry>
        </mxCell>
        <mxCell id="Y4brpUqyJMxe7sHr3JE1-193" style="edgeStyle=orthogonalEdgeStyle;rounded=0;orthogonalLoop=1;jettySize=auto;html=1;entryX=0.5;entryY=0;entryDx=0;entryDy=0;endArrow=none;endFill=0;" parent="1" source="Y4brpUqyJMxe7sHr3JE1-190" target="Y4brpUqyJMxe7sHr3JE1-192" edge="1">
          <mxGeometry relative="1" as="geometry" />
        </mxCell>
        <mxCell id="Y4brpUqyJMxe7sHr3JE1-190" value="Crea" style="rhombus;whiteSpace=wrap;html=1;" parent="1" vertex="1">
          <mxGeometry x="-2830" y="1833" width="80" height="80" as="geometry" />
        </mxCell>
        <mxCell id="Y4brpUqyJMxe7sHr3JE1-194" style="edgeStyle=orthogonalEdgeStyle;rounded=0;orthogonalLoop=1;jettySize=auto;html=1;exitX=0.25;exitY=0;exitDx=0;exitDy=0;endArrow=oval;endFill=0;" parent="1" source="Y4brpUqyJMxe7sHr3JE1-192" edge="1">
          <mxGeometry relative="1" as="geometry">
            <mxPoint x="-2825" y="1930" as="targetPoint" />
          </mxGeometry>
        </mxCell>
        <mxCell id="Y4brpUqyJMxe7sHr3JE1-199" style="edgeStyle=orthogonalEdgeStyle;rounded=0;orthogonalLoop=1;jettySize=auto;html=1;endArrow=oval;endFill=0;" parent="1" source="Y4brpUqyJMxe7sHr3JE1-192" edge="1">
          <mxGeometry relative="1" as="geometry">
            <mxPoint x="-2674" y="2006" as="targetPoint" />
          </mxGeometry>
        </mxCell>
        <mxCell id="Y4brpUqyJMxe7sHr3JE1-192" value="&lt;font style=&quot;font-size: 17px;&quot;&gt;Lista&lt;/font&gt;" style="rounded=0;whiteSpace=wrap;html=1;" parent="1" vertex="1">
          <mxGeometry x="-2860" y="1971" width="140" height="70" as="geometry" />
        </mxCell>
        <mxCell id="Y4brpUqyJMxe7sHr3JE1-195" value="&lt;font style=&quot;font-size: 7px;&quot;&gt;Nome&lt;/font&gt;" style="text;html=1;align=center;verticalAlign=middle;resizable=0;points=[];autosize=1;strokeColor=none;fillColor=none;" parent="1" vertex="1">
          <mxGeometry x="-2847" y="1900" width="40" height="30" as="geometry" />
        </mxCell>
        <mxCell id="Y4brpUqyJMxe7sHr3JE1-196" style="edgeStyle=orthogonalEdgeStyle;rounded=0;orthogonalLoop=1;jettySize=auto;html=1;exitX=0.25;exitY=0;exitDx=0;exitDy=0;endArrow=oval;endFill=1;" parent="1" edge="1">
          <mxGeometry relative="1" as="geometry">
            <mxPoint x="-2750.33" y="1930" as="targetPoint" />
            <mxPoint x="-2750.33" y="1971" as="sourcePoint" />
          </mxGeometry>
        </mxCell>
        <mxCell id="Y4brpUqyJMxe7sHr3JE1-197" value="&lt;font style=&quot;font-size: 7px;&quot;&gt;ID&lt;/font&gt;" style="text;html=1;align=center;verticalAlign=middle;resizable=0;points=[];autosize=1;strokeColor=none;fillColor=none;" parent="1" vertex="1">
          <mxGeometry x="-2766" y="1900" width="30" height="30" as="geometry" />
        </mxCell>
        <mxCell id="Y4brpUqyJMxe7sHr3JE1-200" value="&lt;font style=&quot;font-size: 7px;&quot;&gt;Brani (1,n)&lt;br&gt;&lt;/font&gt;" style="text;html=1;align=center;verticalAlign=middle;resizable=0;points=[];autosize=1;strokeColor=none;fillColor=none;" parent="1" vertex="1">
          <mxGeometry x="-2681" y="1988" width="60" height="30" as="geometry" />
        </mxCell>
        <mxCell id="Y4brpUqyJMxe7sHr3JE1-201" style="edgeStyle=orthogonalEdgeStyle;rounded=0;orthogonalLoop=1;jettySize=auto;html=1;endArrow=oval;endFill=0;" parent="1" edge="1">
          <mxGeometry relative="1" as="geometry">
            <mxPoint x="-2674" y="2029" as="targetPoint" />
            <mxPoint x="-2720" y="2029" as="sourcePoint" />
          </mxGeometry>
        </mxCell>
        <mxCell id="Y4brpUqyJMxe7sHr3JE1-202" value="&lt;font style=&quot;font-size: 7px;&quot;&gt;Artisti (1,n)&lt;br&gt;&lt;/font&gt;" style="text;html=1;align=center;verticalAlign=middle;resizable=0;points=[];autosize=1;strokeColor=none;fillColor=none;" parent="1" vertex="1">
          <mxGeometry x="-2680" y="2011" width="60" height="30" as="geometry" />
        </mxCell>
        <mxCell id="Y4brpUqyJMxe7sHr3JE1-203" value="(0,n)" style="text;html=1;align=center;verticalAlign=middle;resizable=0;points=[];autosize=1;strokeColor=none;fillColor=none;" parent="1" vertex="1">
          <mxGeometry x="-3140" y="2147" width="50" height="30" as="geometry" />
        </mxCell>
        <mxCell id="Y4brpUqyJMxe7sHr3JE1-204" value="(1,n)" style="text;html=1;align=center;verticalAlign=middle;resizable=0;points=[];autosize=1;strokeColor=none;fillColor=none;" parent="1" vertex="1">
          <mxGeometry x="-3077" y="2036" width="50" height="30" as="geometry" />
        </mxCell>
        <mxCell id="Y4brpUqyJMxe7sHr3JE1-205" value="(1,1)" style="text;html=1;align=center;verticalAlign=middle;resizable=0;points=[];autosize=1;strokeColor=none;fillColor=none;" parent="1" vertex="1">
          <mxGeometry x="-3077" y="1940" width="50" height="30" as="geometry" />
        </mxCell>
        <mxCell id="Y4brpUqyJMxe7sHr3JE1-206" value="(1,1)" style="text;html=1;align=center;verticalAlign=middle;resizable=0;points=[];autosize=1;strokeColor=none;fillColor=none;" parent="1" vertex="1">
          <mxGeometry x="-3110" y="1750" width="50" height="30" as="geometry" />
        </mxCell>
        <mxCell id="Y4brpUqyJMxe7sHr3JE1-207" value="(1,1)" style="text;html=1;align=center;verticalAlign=middle;resizable=0;points=[];autosize=1;strokeColor=none;fillColor=none;" parent="1" vertex="1">
          <mxGeometry x="-3090" y="1700" width="50" height="30" as="geometry" />
        </mxCell>
        <mxCell id="Y4brpUqyJMxe7sHr3JE1-208" value="(1,1)" style="text;html=1;align=center;verticalAlign=middle;resizable=0;points=[];autosize=1;strokeColor=none;fillColor=none;" parent="1" vertex="1">
          <mxGeometry x="-3726" y="1340" width="50" height="30" as="geometry" />
        </mxCell>
        <mxCell id="Y4brpUqyJMxe7sHr3JE1-209" value="(1,1)" style="text;html=1;align=center;verticalAlign=middle;resizable=0;points=[];autosize=1;strokeColor=none;fillColor=none;" parent="1" vertex="1">
          <mxGeometry x="-3812" y="2090" width="50" height="30" as="geometry" />
        </mxCell>
        <mxCell id="Y4brpUqyJMxe7sHr3JE1-210" value="(0,n)" style="text;html=1;align=center;verticalAlign=middle;resizable=0;points=[];autosize=1;strokeColor=none;fillColor=none;" parent="1" vertex="1">
          <mxGeometry x="-3269" y="1868" width="50" height="30" as="geometry" />
        </mxCell>
        <mxCell id="Y4brpUqyJMxe7sHr3JE1-211" value="(0,5 )" style="text;html=1;align=center;verticalAlign=middle;resizable=0;points=[];autosize=1;strokeColor=none;fillColor=none;" parent="1" vertex="1">
          <mxGeometry x="-2797" y="1942" width="50" height="30" as="geometry" />
        </mxCell>
        <mxCell id="Y4brpUqyJMxe7sHr3JE1-212" value="" style="endArrow=none;html=1;rounded=0;" parent="1" edge="1">
          <mxGeometry width="50" height="50" relative="1" as="geometry">
            <mxPoint x="-3334" y="1710" as="sourcePoint" />
            <mxPoint x="-3294" y="1710" as="targetPoint" />
          </mxGeometry>
        </mxCell>
        <mxCell id="Y4brpUqyJMxe7sHr3JE1-213" value="" style="endArrow=none;html=1;rounded=0;entryX=0.785;entryY=0.996;entryDx=0;entryDy=0;entryPerimeter=0;" parent="1" target="Y4brpUqyJMxe7sHr3JE1-76" edge="1">
          <mxGeometry width="50" height="50" relative="1" as="geometry">
            <mxPoint x="-3294" y="1710" as="sourcePoint" />
            <mxPoint x="-3244" y="1660" as="targetPoint" />
          </mxGeometry>
        </mxCell>
        <mxCell id="Y4brpUqyJMxe7sHr3JE1-215" value="" style="endArrow=none;html=1;rounded=0;" parent="1" edge="1">
          <mxGeometry width="50" height="50" relative="1" as="geometry">
            <mxPoint x="-3498" y="1597" as="sourcePoint" />
            <mxPoint x="-3314" y="1597" as="targetPoint" />
          </mxGeometry>
        </mxCell>
        <mxCell id="Y4brpUqyJMxe7sHr3JE1-217" value="" style="endArrow=none;html=1;rounded=0;" parent="1" edge="1">
          <mxGeometry width="50" height="50" relative="1" as="geometry">
            <mxPoint x="-3498" y="1597" as="sourcePoint" />
            <mxPoint x="-3498" y="1547" as="targetPoint" />
          </mxGeometry>
        </mxCell>
        <mxCell id="Y4brpUqyJMxe7sHr3JE1-220" value="" style="endArrow=oval;html=1;rounded=0;endFill=1;" parent="1" edge="1">
          <mxGeometry width="50" height="50" relative="1" as="geometry">
            <mxPoint x="-3322" y="1592" as="sourcePoint" />
            <mxPoint x="-3286" y="1592" as="targetPoint" />
          </mxGeometry>
        </mxCell>
        <mxCell id="Y4brpUqyJMxe7sHr3JE1-222" value="" style="endArrow=none;html=1;rounded=0;" parent="1" edge="1">
          <mxGeometry width="50" height="50" relative="1" as="geometry">
            <mxPoint x="-3147" y="1597" as="sourcePoint" />
            <mxPoint x="-3147" y="1547" as="targetPoint" />
          </mxGeometry>
        </mxCell>
        <mxCell id="Y4brpUqyJMxe7sHr3JE1-226" value="" style="endArrow=none;html=1;rounded=0;" parent="1" edge="1">
          <mxGeometry width="50" height="50" relative="1" as="geometry">
            <mxPoint x="-3274" y="1597" as="sourcePoint" />
            <mxPoint x="-3147" y="1597" as="targetPoint" />
          </mxGeometry>
        </mxCell>
        <mxCell id="Y4brpUqyJMxe7sHr3JE1-229" value="" style="endArrow=oval;html=1;rounded=0;endFill=1;" parent="1" edge="1">
          <mxGeometry width="50" height="50" relative="1" as="geometry">
            <mxPoint x="-3262" y="1586" as="sourcePoint" />
            <mxPoint x="-3302" y="1586" as="targetPoint" />
          </mxGeometry>
        </mxCell>
        <mxCell id="Y4brpUqyJMxe7sHr3JE1-702" style="edgeStyle=orthogonalEdgeStyle;rounded=0;orthogonalLoop=1;jettySize=auto;html=1;endArrow=none;endFill=0;" parent="1" source="Y4brpUqyJMxe7sHr3JE1-701" edge="1">
          <mxGeometry relative="1" as="geometry">
            <mxPoint x="-4240" y="2153.005" as="targetPoint" />
          </mxGeometry>
        </mxCell>
        <mxCell id="Y4brpUqyJMxe7sHr3JE1-759" style="edgeStyle=orthogonalEdgeStyle;rounded=0;orthogonalLoop=1;jettySize=auto;html=1;entryX=0.5;entryY=1;entryDx=0;entryDy=0;endArrow=none;endFill=0;" parent="1" source="Y4brpUqyJMxe7sHr3JE1-701" target="Y4brpUqyJMxe7sHr3JE1-703" edge="1">
          <mxGeometry relative="1" as="geometry">
            <mxPoint x="-4350.625" y="1440" as="targetPoint" />
          </mxGeometry>
        </mxCell>
        <mxCell id="Y4brpUqyJMxe7sHr3JE1-701" value="Di" style="rhombus;whiteSpace=wrap;html=1;" parent="1" vertex="1">
          <mxGeometry x="-4390" y="2113.63" width="78.75" height="78.75" as="geometry" />
        </mxCell>
        <mxCell id="Y4brpUqyJMxe7sHr3JE1-828" style="edgeStyle=orthogonalEdgeStyle;rounded=0;orthogonalLoop=1;jettySize=auto;html=1;exitX=1;exitY=0.25;exitDx=0;exitDy=0;entryX=0.5;entryY=1;entryDx=0;entryDy=0;endArrow=none;endFill=0;" parent="1" source="Y4brpUqyJMxe7sHr3JE1-703" target="Y4brpUqyJMxe7sHr3JE1-823" edge="1">
          <mxGeometry relative="1" as="geometry">
            <Array as="points">
              <mxPoint x="-4200" y="1350" />
              <mxPoint x="-4060" y="1350" />
              <mxPoint x="-4060" y="1180" />
            </Array>
          </mxGeometry>
        </mxCell>
        <mxCell id="Y4brpUqyJMxe7sHr3JE1-703" value="&lt;font style=&quot;font-size: 17px;&quot;&gt;Recensione&lt;/font&gt;" style="rounded=0;whiteSpace=wrap;html=1;" parent="1" vertex="1">
          <mxGeometry x="-4320" y="1340" width="120" height="60" as="geometry" />
        </mxCell>
        <mxCell id="Y4brpUqyJMxe7sHr3JE1-705" value="(0,n)" style="text;html=1;align=center;verticalAlign=middle;resizable=0;points=[];autosize=1;strokeColor=none;fillColor=none;" parent="1" vertex="1">
          <mxGeometry x="-4299" y="2148" width="50" height="30" as="geometry" />
        </mxCell>
        <mxCell id="Y4brpUqyJMxe7sHr3JE1-706" value="(1,1)" style="text;html=1;align=center;verticalAlign=middle;resizable=0;points=[];autosize=1;strokeColor=none;fillColor=none;" parent="1" vertex="1">
          <mxGeometry x="-4265" y="1398" width="50" height="30" as="geometry" />
        </mxCell>
        <mxCell id="Y4brpUqyJMxe7sHr3JE1-708" value="&lt;font style=&quot;font-size: 7px;&quot;&gt;Cod.giuria&lt;/font&gt;" style="text;html=1;align=center;verticalAlign=middle;resizable=0;points=[];autosize=1;strokeColor=none;fillColor=none;" parent="1" vertex="1">
          <mxGeometry x="-4330" y="1267" width="60" height="30" as="geometry" />
        </mxCell>
        <mxCell id="Y4brpUqyJMxe7sHr3JE1-710" style="edgeStyle=orthogonalEdgeStyle;rounded=0;orthogonalLoop=1;jettySize=auto;html=1;exitX=0.25;exitY=0;exitDx=0;exitDy=0;endArrow=oval;endFill=0;" parent="1" edge="1">
          <mxGeometry relative="1" as="geometry">
            <mxPoint x="-4299.5" y="1300" as="targetPoint" />
            <mxPoint x="-4300" y="1340" as="sourcePoint" />
          </mxGeometry>
        </mxCell>
        <mxCell id="Y4brpUqyJMxe7sHr3JE1-711" value="&lt;div&gt;&lt;font style=&quot;font-size: 7px;&quot;&gt;Cod.spettatore&lt;/font&gt;&lt;/div&gt;" style="text;html=1;align=center;verticalAlign=middle;resizable=0;points=[];autosize=1;strokeColor=none;fillColor=none;" parent="1" vertex="1">
          <mxGeometry x="-4265" y="1267" width="70" height="30" as="geometry" />
        </mxCell>
        <mxCell id="Y4brpUqyJMxe7sHr3JE1-720" value="&lt;font style=&quot;font-size: 7px;&quot;&gt;CF&lt;/font&gt;" style="text;html=1;align=center;verticalAlign=middle;resizable=0;points=[];autosize=1;strokeColor=none;fillColor=none;" parent="1" vertex="1">
          <mxGeometry x="-3494" y="1140" width="30" height="30" as="geometry" />
        </mxCell>
        <mxCell id="Y4brpUqyJMxe7sHr3JE1-721" value="&lt;font style=&quot;font-size: 7px;&quot;&gt;Nome&lt;/font&gt;" style="text;html=1;align=center;verticalAlign=middle;resizable=0;points=[];autosize=1;strokeColor=none;fillColor=none;" parent="1" vertex="1">
          <mxGeometry x="-3461" y="1140" width="40" height="30" as="geometry" />
        </mxCell>
        <mxCell id="Y4brpUqyJMxe7sHr3JE1-723" value="&lt;font style=&quot;font-size: 7px;&quot;&gt;Cognome&lt;/font&gt;" style="text;html=1;align=center;verticalAlign=middle;resizable=0;points=[];autosize=1;strokeColor=none;fillColor=none;" parent="1" vertex="1">
          <mxGeometry x="-3420" y="1140" width="50" height="30" as="geometry" />
        </mxCell>
        <mxCell id="Y4brpUqyJMxe7sHr3JE1-727" value="(t, e)" style="text;html=1;align=center;verticalAlign=middle;resizable=0;points=[];autosize=1;strokeColor=none;fillColor=none;" parent="1" vertex="1">
          <mxGeometry x="-3434" y="1280" width="50" height="30" as="geometry" />
        </mxCell>
        <mxCell id="Y4brpUqyJMxe7sHr3JE1-728" style="edgeStyle=orthogonalEdgeStyle;rounded=0;orthogonalLoop=1;jettySize=auto;html=1;exitX=0.25;exitY=0;exitDx=0;exitDy=0;endArrow=oval;endFill=0;" parent="1" edge="1">
          <mxGeometry relative="1" as="geometry">
            <mxPoint x="-4229.5" y="1300" as="targetPoint" />
            <mxPoint x="-4230" y="1340" as="sourcePoint" />
          </mxGeometry>
        </mxCell>
        <mxCell id="Y4brpUqyJMxe7sHr3JE1-747" style="edgeStyle=orthogonalEdgeStyle;rounded=0;orthogonalLoop=1;jettySize=auto;html=1;endArrow=oval;endFill=1;" parent="1" edge="1">
          <mxGeometry relative="1" as="geometry">
            <mxPoint x="-3480" y="1170" as="targetPoint" />
            <mxPoint x="-3479.978723404255" y="1213" as="sourcePoint" />
          </mxGeometry>
        </mxCell>
        <mxCell id="Y4brpUqyJMxe7sHr3JE1-744" value="&lt;font style=&quot;font-size: 17px;&quot;&gt;Persona&lt;/font&gt;" style="rounded=0;whiteSpace=wrap;html=1;" parent="1" vertex="1">
          <mxGeometry x="-3503" y="1213" width="140" height="70" as="geometry" />
        </mxCell>
        <mxCell id="Y4brpUqyJMxe7sHr3JE1-748" style="edgeStyle=orthogonalEdgeStyle;rounded=0;orthogonalLoop=1;jettySize=auto;html=1;endArrow=oval;endFill=0;" parent="1" edge="1">
          <mxGeometry relative="1" as="geometry">
            <mxPoint x="-3441" y="1170" as="targetPoint" />
            <mxPoint x="-3440.978723404255" y="1213" as="sourcePoint" />
          </mxGeometry>
        </mxCell>
        <mxCell id="Y4brpUqyJMxe7sHr3JE1-749" style="edgeStyle=orthogonalEdgeStyle;rounded=0;orthogonalLoop=1;jettySize=auto;html=1;endArrow=oval;endFill=0;" parent="1" edge="1">
          <mxGeometry relative="1" as="geometry">
            <mxPoint x="-3395.21" y="1170" as="targetPoint" />
            <mxPoint x="-3395.188723404255" y="1213" as="sourcePoint" />
          </mxGeometry>
        </mxCell>
        <mxCell id="Y4brpUqyJMxe7sHr3JE1-753" style="edgeStyle=orthogonalEdgeStyle;rounded=0;orthogonalLoop=1;jettySize=auto;html=1;entryX=0.5;entryY=1;entryDx=0;entryDy=0;" parent="1" source="Y4brpUqyJMxe7sHr3JE1-750" target="Y4brpUqyJMxe7sHr3JE1-744" edge="1">
          <mxGeometry relative="1" as="geometry">
            <Array as="points">
              <mxPoint x="-3611" y="1310" />
              <mxPoint x="-3433" y="1310" />
            </Array>
          </mxGeometry>
        </mxCell>
        <mxCell id="Y4brpUqyJMxe7sHr3JE1-750" value="&lt;font style=&quot;font-size: 17px;&quot;&gt;Artista&lt;/font&gt;" style="rounded=0;whiteSpace=wrap;html=1;" parent="1" vertex="1">
          <mxGeometry x="-3681" y="1332" width="140" height="70" as="geometry" />
        </mxCell>
        <mxCell id="Y4brpUqyJMxe7sHr3JE1-754" style="edgeStyle=orthogonalEdgeStyle;rounded=0;orthogonalLoop=1;jettySize=auto;html=1;endArrow=none;endFill=0;" parent="1" source="Y4brpUqyJMxe7sHr3JE1-751" edge="1">
          <mxGeometry relative="1" as="geometry">
            <mxPoint x="-3433" y="1290" as="targetPoint" />
          </mxGeometry>
        </mxCell>
        <mxCell id="Y4brpUqyJMxe7sHr3JE1-761" style="edgeStyle=orthogonalEdgeStyle;rounded=0;orthogonalLoop=1;jettySize=auto;html=1;exitX=0.25;exitY=0;exitDx=0;exitDy=0;entryX=1;entryY=0.5;entryDx=0;entryDy=0;endArrow=none;endFill=0;" parent="1" source="Y4brpUqyJMxe7sHr3JE1-751" target="Y4brpUqyJMxe7sHr3JE1-760" edge="1">
          <mxGeometry relative="1" as="geometry">
            <Array as="points">
              <mxPoint x="-3530" y="1332" />
              <mxPoint x="-3530" y="1210" />
            </Array>
          </mxGeometry>
        </mxCell>
        <mxCell id="Y4brpUqyJMxe7sHr3JE1-751" value="&lt;font style=&quot;font-size: 17px;&quot;&gt;Spettatore&lt;/font&gt;" style="rounded=0;whiteSpace=wrap;html=1;" parent="1" vertex="1">
          <mxGeometry x="-3503" y="1332" width="140" height="70" as="geometry" />
        </mxCell>
        <mxCell id="Y4brpUqyJMxe7sHr3JE1-758" style="edgeStyle=orthogonalEdgeStyle;rounded=0;orthogonalLoop=1;jettySize=auto;html=1;entryX=0.5;entryY=1;entryDx=0;entryDy=0;" parent="1" source="Y4brpUqyJMxe7sHr3JE1-752" target="Y4brpUqyJMxe7sHr3JE1-744" edge="1">
          <mxGeometry relative="1" as="geometry">
            <Array as="points">
              <mxPoint x="-3253" y="1310" />
              <mxPoint x="-3433" y="1310" />
            </Array>
          </mxGeometry>
        </mxCell>
        <mxCell id="Y4brpUqyJMxe7sHr3JE1-780" style="edgeStyle=orthogonalEdgeStyle;rounded=0;orthogonalLoop=1;jettySize=auto;html=1;exitX=0.75;exitY=0;exitDx=0;exitDy=0;entryX=0.5;entryY=0;entryDx=0;entryDy=0;endArrow=none;endFill=0;" parent="1" source="Y4brpUqyJMxe7sHr3JE1-752" target="Y4brpUqyJMxe7sHr3JE1-778" edge="1">
          <mxGeometry relative="1" as="geometry">
            <Array as="points">
              <mxPoint x="-3218" y="1120" />
              <mxPoint x="-3834" y="1120" />
            </Array>
          </mxGeometry>
        </mxCell>
        <mxCell id="Y4brpUqyJMxe7sHr3JE1-752" value="&lt;font style=&quot;font-size: 17px;&quot;&gt;Giuria&lt;/font&gt;" style="rounded=0;whiteSpace=wrap;html=1;" parent="1" vertex="1">
          <mxGeometry x="-3312" y="1332" width="140" height="70" as="geometry" />
        </mxCell>
        <mxCell id="Y4brpUqyJMxe7sHr3JE1-763" style="edgeStyle=orthogonalEdgeStyle;rounded=0;orthogonalLoop=1;jettySize=auto;html=1;entryX=1;entryY=0.5;entryDx=0;entryDy=0;endArrow=none;endFill=0;exitX=0;exitY=0.5;exitDx=0;exitDy=0;" parent="1" source="Y4brpUqyJMxe7sHr3JE1-760" target="Y4brpUqyJMxe7sHr3JE1-703" edge="1">
          <mxGeometry relative="1" as="geometry">
            <mxPoint x="-3734" y="1210" as="sourcePoint" />
          </mxGeometry>
        </mxCell>
        <mxCell id="Y4brpUqyJMxe7sHr3JE1-760" value="Fa" style="rhombus;whiteSpace=wrap;html=1;" parent="1" vertex="1">
          <mxGeometry x="-3750" y="1190" width="40" height="40" as="geometry" />
        </mxCell>
        <mxCell id="Y4brpUqyJMxe7sHr3JE1-767" style="edgeStyle=orthogonalEdgeStyle;rounded=0;orthogonalLoop=1;jettySize=auto;html=1;entryX=0.344;entryY=1.011;entryDx=0;entryDy=0;entryPerimeter=0;" parent="1" source="Y4brpUqyJMxe7sHr3JE1-766" target="Y4brpUqyJMxe7sHr3JE1-750" edge="1">
          <mxGeometry relative="1" as="geometry" />
        </mxCell>
        <mxCell id="Y4brpUqyJMxe7sHr3JE1-781" style="edgeStyle=orthogonalEdgeStyle;rounded=0;orthogonalLoop=1;jettySize=auto;html=1;exitX=1;exitY=0.25;exitDx=0;exitDy=0;entryX=0.5;entryY=1;entryDx=0;entryDy=0;endArrow=none;endFill=0;" parent="1" source="Y4brpUqyJMxe7sHr3JE1-766" target="Y4brpUqyJMxe7sHr3JE1-778" edge="1">
          <mxGeometry relative="1" as="geometry" />
        </mxCell>
        <mxCell id="Y4brpUqyJMxe7sHr3JE1-766" value="&lt;font style=&quot;font-size: 17px;&quot;&gt;Vincitore&lt;/font&gt;" style="rounded=0;whiteSpace=wrap;html=1;" parent="1" vertex="1">
          <mxGeometry x="-4098" y="1450" width="140" height="70" as="geometry" />
        </mxCell>
        <mxCell id="Y4brpUqyJMxe7sHr3JE1-768" value="(nt, e)" style="text;html=1;align=center;verticalAlign=middle;resizable=0;points=[];autosize=1;strokeColor=none;fillColor=none;" parent="1" vertex="1">
          <mxGeometry x="-3684" y="1400" width="50" height="30" as="geometry" />
        </mxCell>
        <mxCell id="Y4brpUqyJMxe7sHr3JE1-769" value="" style="endArrow=none;html=1;rounded=0;" parent="1" edge="1">
          <mxGeometry width="50" height="50" relative="1" as="geometry">
            <mxPoint x="-4300" y="2150" as="sourcePoint" />
            <mxPoint x="-4300" y="1430" as="targetPoint" />
          </mxGeometry>
        </mxCell>
        <mxCell id="Y4brpUqyJMxe7sHr3JE1-770" value="" style="endArrow=none;html=1;rounded=0;" parent="1" edge="1">
          <mxGeometry width="50" height="50" relative="1" as="geometry">
            <mxPoint x="-4370" y="1430" as="sourcePoint" />
            <mxPoint x="-4300" y="1430" as="targetPoint" />
          </mxGeometry>
        </mxCell>
        <mxCell id="Y4brpUqyJMxe7sHr3JE1-771" value="" style="endArrow=none;html=1;rounded=0;" parent="1" edge="1">
          <mxGeometry width="50" height="50" relative="1" as="geometry">
            <mxPoint x="-4370" y="1430" as="sourcePoint" />
            <mxPoint x="-4370" y="1320" as="targetPoint" />
          </mxGeometry>
        </mxCell>
        <mxCell id="Y4brpUqyJMxe7sHr3JE1-772" value="" style="endArrow=oval;html=1;rounded=0;endFill=1;" parent="1" edge="1">
          <mxGeometry width="50" height="50" relative="1" as="geometry">
            <mxPoint x="-4370" y="1320" as="sourcePoint" />
            <mxPoint x="-4200" y="1320" as="targetPoint" />
          </mxGeometry>
        </mxCell>
        <mxCell id="Y4brpUqyJMxe7sHr3JE1-773" value="" style="endArrow=none;html=1;rounded=0;" parent="1" edge="1">
          <mxGeometry width="50" height="50" relative="1" as="geometry">
            <mxPoint x="-3696" y="1310" as="sourcePoint" />
            <mxPoint x="-3696.4" y="1210" as="targetPoint" />
          </mxGeometry>
        </mxCell>
        <mxCell id="Y4brpUqyJMxe7sHr3JE1-774" value="" style="endArrow=oval;html=1;rounded=0;endFill=1;" parent="1" edge="1">
          <mxGeometry width="50" height="50" relative="1" as="geometry">
            <mxPoint x="-3696" y="1310" as="sourcePoint" />
            <mxPoint x="-4250" y="1310" as="targetPoint" />
          </mxGeometry>
        </mxCell>
        <mxCell id="Y4brpUqyJMxe7sHr3JE1-775" value="" style="endArrow=none;html=1;rounded=0;" parent="1" edge="1">
          <mxGeometry width="50" height="50" relative="1" as="geometry">
            <mxPoint x="-4270" y="1160" as="sourcePoint" />
            <mxPoint x="-3739" y="1160" as="targetPoint" />
          </mxGeometry>
        </mxCell>
        <mxCell id="Y4brpUqyJMxe7sHr3JE1-776" value="" style="endArrow=none;html=1;rounded=0;" parent="1" edge="1">
          <mxGeometry width="50" height="50" relative="1" as="geometry">
            <mxPoint x="-4270" y="1310" as="sourcePoint" />
            <mxPoint x="-4270" y="1160" as="targetPoint" />
          </mxGeometry>
        </mxCell>
        <mxCell id="Y4brpUqyJMxe7sHr3JE1-777" value="" style="endArrow=oval;html=1;rounded=0;endFill=1;" parent="1" edge="1">
          <mxGeometry width="50" height="50" relative="1" as="geometry">
            <mxPoint x="-4270" y="1310" as="sourcePoint" />
            <mxPoint x="-4340" y="1310" as="targetPoint" />
          </mxGeometry>
        </mxCell>
        <mxCell id="Y4brpUqyJMxe7sHr3JE1-778" value="Sceglie" style="rhombus;whiteSpace=wrap;html=1;" parent="1" vertex="1">
          <mxGeometry x="-3874" y="1327" width="80" height="80" as="geometry" />
        </mxCell>
        <mxCell id="Y4brpUqyJMxe7sHr3JE1-811" style="edgeStyle=orthogonalEdgeStyle;rounded=0;orthogonalLoop=1;jettySize=auto;html=1;entryX=0;entryY=0;entryDx=0;entryDy=0;endArrow=none;endFill=0;exitX=0.5;exitY=1;exitDx=0;exitDy=0;" parent="1" source="Y4brpUqyJMxe7sHr3JE1-783" edge="1">
          <mxGeometry relative="1" as="geometry">
            <mxPoint x="-3530" y="1083.5" as="sourcePoint" />
            <mxPoint x="-3504" y="1332" as="targetPoint" />
            <Array as="points">
              <mxPoint x="-3520" y="1085" />
              <mxPoint x="-3520" y="1332" />
            </Array>
          </mxGeometry>
        </mxCell>
        <mxCell id="Y4brpUqyJMxe7sHr3JE1-783" value="Vende" style="rhombus;whiteSpace=wrap;html=1;" parent="1" vertex="1">
          <mxGeometry x="-3552.5" y="1020" width="65" height="65" as="geometry" />
        </mxCell>
        <mxCell id="Y4brpUqyJMxe7sHr3JE1-790" style="edgeStyle=orthogonalEdgeStyle;rounded=0;orthogonalLoop=1;jettySize=auto;html=1;endArrow=oval;endFill=0;" parent="1" edge="1">
          <mxGeometry relative="1" as="geometry">
            <mxPoint x="-3459" y="921" as="targetPoint" />
            <mxPoint x="-3459" y="961" as="sourcePoint" />
            <Array as="points">
              <mxPoint x="-3459" y="931" />
              <mxPoint x="-3459" y="931" />
            </Array>
          </mxGeometry>
        </mxCell>
        <mxCell id="Y4brpUqyJMxe7sHr3JE1-791" style="edgeStyle=orthogonalEdgeStyle;rounded=0;orthogonalLoop=1;jettySize=auto;html=1;endArrow=none;endFill=0;" parent="1" source="Y4brpUqyJMxe7sHr3JE1-792" edge="1">
          <mxGeometry relative="1" as="geometry">
            <mxPoint x="-3419" y="890" as="targetPoint" />
          </mxGeometry>
        </mxCell>
        <mxCell id="Y4brpUqyJMxe7sHr3JE1-805" style="edgeStyle=orthogonalEdgeStyle;rounded=0;orthogonalLoop=1;jettySize=auto;html=1;exitX=0;exitY=0.5;exitDx=0;exitDy=0;entryX=0.5;entryY=0;entryDx=0;entryDy=0;endArrow=none;endFill=0;" parent="1" source="Y4brpUqyJMxe7sHr3JE1-792" target="Y4brpUqyJMxe7sHr3JE1-783" edge="1">
          <mxGeometry relative="1" as="geometry" />
        </mxCell>
        <mxCell id="Y4brpUqyJMxe7sHr3JE1-792" value="&lt;font style=&quot;font-size: 17px;&quot;&gt;Biglietto&lt;/font&gt;" style="rounded=0;whiteSpace=wrap;html=1;" parent="1" vertex="1">
          <mxGeometry x="-3479" y="960" width="120" height="60" as="geometry" />
        </mxCell>
        <mxCell id="Y4brpUqyJMxe7sHr3JE1-793" value="&lt;font style=&quot;font-size: 7px;&quot;&gt;Costo&lt;/font&gt;" style="text;html=1;align=center;verticalAlign=middle;resizable=0;points=[];autosize=1;strokeColor=none;fillColor=none;" parent="1" vertex="1">
          <mxGeometry x="-3479" y="892" width="40" height="30" as="geometry" />
        </mxCell>
        <mxCell id="Y4brpUqyJMxe7sHr3JE1-794" style="edgeStyle=orthogonalEdgeStyle;rounded=0;orthogonalLoop=1;jettySize=auto;html=1;endArrow=oval;endFill=1;" parent="1" edge="1">
          <mxGeometry relative="1" as="geometry">
            <mxPoint x="-3379.2" y="921" as="targetPoint" />
            <mxPoint x="-3379.2" y="961" as="sourcePoint" />
            <Array as="points">
              <mxPoint x="-3379.2" y="931" />
              <mxPoint x="-3379.2" y="931" />
            </Array>
          </mxGeometry>
        </mxCell>
        <mxCell id="Y4brpUqyJMxe7sHr3JE1-795" value="&lt;font style=&quot;font-size: 7px;&quot;&gt;Codice&lt;/font&gt;" style="text;html=1;align=center;verticalAlign=middle;resizable=0;points=[];autosize=1;strokeColor=none;fillColor=none;" parent="1" vertex="1">
          <mxGeometry x="-3404" y="892" width="50" height="30" as="geometry" />
        </mxCell>
        <mxCell id="Y4brpUqyJMxe7sHr3JE1-796" style="edgeStyle=orthogonalEdgeStyle;rounded=0;orthogonalLoop=1;jettySize=auto;html=1;entryX=0.5;entryY=1;entryDx=0;entryDy=0;endArrow=none;endFill=0;" parent="1" source="Y4brpUqyJMxe7sHr3JE1-797" target="Y4brpUqyJMxe7sHr3JE1-798" edge="1">
          <mxGeometry relative="1" as="geometry" />
        </mxCell>
        <mxCell id="Y4brpUqyJMxe7sHr3JE1-797" value="In" style="rhombus;whiteSpace=wrap;html=1;" parent="1" vertex="1">
          <mxGeometry x="-3434" y="892" width="30" height="30" as="geometry" />
        </mxCell>
        <mxCell id="Y4brpUqyJMxe7sHr3JE1-798" value="&lt;font style=&quot;font-size: 17px;&quot;&gt;Punto&lt;br&gt;Vendita&lt;/font&gt;" style="rounded=0;whiteSpace=wrap;html=1;" parent="1" vertex="1">
          <mxGeometry x="-3479" y="800" width="120" height="60" as="geometry" />
        </mxCell>
        <mxCell id="Y4brpUqyJMxe7sHr3JE1-799" style="edgeStyle=orthogonalEdgeStyle;rounded=0;orthogonalLoop=1;jettySize=auto;html=1;endArrow=oval;endFill=1;" parent="1" edge="1">
          <mxGeometry relative="1" as="geometry">
            <mxPoint x="-3419.2" y="760" as="targetPoint" />
            <mxPoint x="-3419.2" y="800" as="sourcePoint" />
            <Array as="points">
              <mxPoint x="-3419.2" y="770" />
              <mxPoint x="-3419.2" y="770" />
            </Array>
          </mxGeometry>
        </mxCell>
        <mxCell id="Y4brpUqyJMxe7sHr3JE1-800" value="&lt;font style=&quot;font-size: 7px;&quot;&gt;Codice&lt;/font&gt;" style="text;html=1;align=center;verticalAlign=middle;resizable=0;points=[];autosize=1;strokeColor=none;fillColor=none;" parent="1" vertex="1">
          <mxGeometry x="-3445" y="730" width="50" height="30" as="geometry" />
        </mxCell>
        <mxCell id="Y4brpUqyJMxe7sHr3JE1-803" value="(1,n)" style="text;html=1;align=center;verticalAlign=middle;resizable=0;points=[];autosize=1;strokeColor=none;fillColor=none;" parent="1" vertex="1">
          <mxGeometry x="-3427" y="930" width="50" height="30" as="geometry" />
        </mxCell>
        <mxCell id="Y4brpUqyJMxe7sHr3JE1-804" value="(0,n)" style="text;html=1;align=center;verticalAlign=middle;resizable=0;points=[];autosize=1;strokeColor=none;fillColor=none;" parent="1" vertex="1">
          <mxGeometry x="-3427" y="857" width="50" height="30" as="geometry" />
        </mxCell>
        <mxCell id="Y4brpUqyJMxe7sHr3JE1-810" style="edgeStyle=orthogonalEdgeStyle;rounded=0;orthogonalLoop=1;jettySize=auto;html=1;entryX=1;entryY=0.5;entryDx=0;entryDy=0;endArrow=none;endFill=0;" parent="1" source="Y4brpUqyJMxe7sHr3JE1-809" target="Y4brpUqyJMxe7sHr3JE1-792" edge="1">
          <mxGeometry relative="1" as="geometry">
            <Array as="points">
              <mxPoint x="-3316" y="990" />
            </Array>
          </mxGeometry>
        </mxCell>
        <mxCell id="Y4brpUqyJMxe7sHr3JE1-815" style="edgeStyle=orthogonalEdgeStyle;rounded=0;orthogonalLoop=1;jettySize=auto;html=1;entryX=1;entryY=0;entryDx=0;entryDy=0;endArrow=none;endFill=0;" parent="1" edge="1">
          <mxGeometry relative="1" as="geometry">
            <mxPoint x="-3316" y="1082" as="sourcePoint" />
            <mxPoint x="-3366" y="1332" as="targetPoint" />
            <Array as="points">
              <mxPoint x="-3316" y="1332" />
            </Array>
          </mxGeometry>
        </mxCell>
        <mxCell id="Y4brpUqyJMxe7sHr3JE1-809" value="Compra" style="rhombus;whiteSpace=wrap;html=1;" parent="1" vertex="1">
          <mxGeometry x="-3348.5" y="1020" width="65" height="65" as="geometry" />
        </mxCell>
        <mxCell id="Y4brpUqyJMxe7sHr3JE1-817" value="(1,1)" style="text;html=1;align=center;verticalAlign=middle;resizable=0;points=[];autosize=1;strokeColor=none;fillColor=none;" parent="1" vertex="1">
          <mxGeometry x="-3528" y="986" width="50" height="30" as="geometry" />
        </mxCell>
        <mxCell id="Y4brpUqyJMxe7sHr3JE1-818" value="(1,1)" style="text;html=1;align=center;verticalAlign=middle;resizable=0;points=[];autosize=1;strokeColor=none;fillColor=none;" parent="1" vertex="1">
          <mxGeometry x="-3365" y="986" width="50" height="30" as="geometry" />
        </mxCell>
        <mxCell id="Y4brpUqyJMxe7sHr3JE1-819" value="(0,n)" style="text;html=1;align=center;verticalAlign=middle;resizable=0;points=[];autosize=1;strokeColor=none;fillColor=none;" parent="1" vertex="1">
          <mxGeometry x="-3562" y="1140" width="50" height="30" as="geometry" />
        </mxCell>
        <mxCell id="Y4brpUqyJMxe7sHr3JE1-820" value="(1,n)" style="text;html=1;align=center;verticalAlign=middle;resizable=0;points=[];autosize=1;strokeColor=none;fillColor=none;" parent="1" vertex="1">
          <mxGeometry x="-3370" y="1327" width="50" height="30" as="geometry" />
        </mxCell>
        <mxCell id="Y4brpUqyJMxe7sHr3JE1-821" value="(0,n)" style="text;html=1;align=center;verticalAlign=middle;resizable=0;points=[];autosize=1;strokeColor=none;fillColor=none;" parent="1" vertex="1">
          <mxGeometry x="-3479" y="1398" width="50" height="30" as="geometry" />
        </mxCell>
        <mxCell id="Y4brpUqyJMxe7sHr3JE1-822" value="(0,n)" style="text;html=1;align=center;verticalAlign=middle;resizable=0;points=[];autosize=1;strokeColor=none;fillColor=none;" parent="1" vertex="1">
          <mxGeometry x="-3283.5" y="1400" width="50" height="30" as="geometry" />
        </mxCell>
        <mxCell id="Y4brpUqyJMxe7sHr3JE1-824" style="edgeStyle=orthogonalEdgeStyle;rounded=0;orthogonalLoop=1;jettySize=auto;html=1;entryX=0.5;entryY=0;entryDx=0;entryDy=0;exitX=1;exitY=0.5;exitDx=0;exitDy=0;endArrow=none;endFill=0;" parent="1" source="Y4brpUqyJMxe7sHr3JE1-823" target="Y4brpUqyJMxe7sHr3JE1-752" edge="1">
          <mxGeometry relative="1" as="geometry">
            <Array as="points">
              <mxPoint x="-3710" y="1140" />
              <mxPoint x="-3242" y="1140" />
            </Array>
          </mxGeometry>
        </mxCell>
        <mxCell id="Y4brpUqyJMxe7sHr3JE1-823" value="Scrive" style="rhombus;whiteSpace=wrap;html=1;" parent="1" vertex="1">
          <mxGeometry x="-3900" y="1044" width="66" height="66" as="geometry" />
        </mxCell>
        <mxCell id="Y4brpUqyJMxe7sHr3JE1-825" value="(1,n)" style="text;html=1;align=center;verticalAlign=middle;resizable=0;points=[];autosize=1;strokeColor=none;fillColor=none;" parent="1" vertex="1">
          <mxGeometry x="-3283.5" y="1280" width="50" height="30" as="geometry" />
        </mxCell>
        <mxCell id="Y4brpUqyJMxe7sHr3JE1-826" value="(1,n)" style="text;html=1;align=center;verticalAlign=middle;resizable=0;points=[];autosize=1;strokeColor=none;fillColor=none;" parent="1" vertex="1">
          <mxGeometry x="-3229" y="1280" width="50" height="30" as="geometry" />
        </mxCell>
        <mxCell id="Y4brpUqyJMxe7sHr3JE1-827" value="(1,1)" style="text;html=1;align=center;verticalAlign=middle;resizable=0;points=[];autosize=1;strokeColor=none;fillColor=none;" parent="1" vertex="1">
          <mxGeometry x="-3958" y="1440" width="50" height="30" as="geometry" />
        </mxCell>
        <mxCell id="Y4brpUqyJMxe7sHr3JE1-830" value="(1,1)" style="text;html=1;align=center;verticalAlign=middle;resizable=0;points=[];autosize=1;strokeColor=none;fillColor=none;" parent="1" vertex="1">
          <mxGeometry x="-4207" y="1320" width="50" height="30" as="geometry" />
        </mxCell>
        <mxCell id="Y4brpUqyJMxe7sHr3JE1-831" value="(1,1)" style="text;html=1;align=center;verticalAlign=middle;resizable=0;points=[];autosize=1;strokeColor=none;fillColor=none;" parent="1" vertex="1">
          <mxGeometry x="-4207" y="1368" width="50" height="30" as="geometry" />
        </mxCell>
        <mxCell id="Y4brpUqyJMxe7sHr3JE1-833" value="" style="endArrow=none;html=1;rounded=0;" parent="1" edge="1">
          <mxGeometry width="50" height="50" relative="1" as="geometry">
            <mxPoint x="-3740" y="1159" as="sourcePoint" />
            <mxPoint x="-3740" y="1079" as="targetPoint" />
          </mxGeometry>
        </mxCell>
        <mxCell id="Y4brpUqyJMxe7sHr3JE1-836" value="(0,n)" style="text;html=1;align=center;verticalAlign=middle;resizable=0;points=[];autosize=1;strokeColor=none;fillColor=none;" parent="1" vertex="1">
          <mxGeometry x="-3573" y="1206" width="50" height="30" as="geometry" />
        </mxCell>
      </root>
    </mxGraphModel>
  </diagram>
</mxfile>
